<?xml version="1.0" encoding="utf-8"?>
<!-- Generator: Adobe Illustrator 19.0.0, SVG Export Plug-In . SVG Version: 6.00 Build 0)  -->
<svg version="1.1" id="Layer_1" xmlns="http://www.w3.org/2000/svg" xmlns:xlink="http://www.w3.org/1999/xlink" x="0px" y="0px"
	 viewBox="0 0 560 560" style="enable-background:new 0 0 560 560;" xml:space="preserve">
<style type="text/css">
	.st0{fill:#1D1D1B;}
	.st1{fill:none;stroke:#1D1D1B;stroke-width:6;stroke-miterlimit:10;}
	.st2{fill:none;stroke:#1D1D1B;stroke-width:4;stroke-miterlimit:10;}
</style>
<g id="XMLID_41_">
	<g id="XMLID_66_">
		<path id="XMLID_94_" class="st0" d="M556.1,485.6H304.6v-13.3h238.2V107.3h-21.1l-35.5-21.9l-170.4-2.3c-3.5,0-7.1,0.9-10.2,2.7
			l-26.7,16l-25.4-16.1c-3.2-2.2-6.9-3.3-11-3.3L72.9,84.7l-35.5,21.9H16.3v364.9h238.2v13.3H3V93.4h30.6l35.5-21.9l173.4-2.3
			c7,0,13.2,1.8,18.5,5.5l18.2,11.6l19.7-11.8c5.2-3,11-4.6,17-4.6L490,72.2l35.5,21.9h30.6V485.6z"/>
	</g>
	<g id="XMLID_65_">
		<polygon id="XMLID_93_" class="st0" points="306.9,500.5 252.8,500.5 252.8,458.7 29.9,458.7 29.9,100 43.1,100 43.1,445.4 
			266.1,445.4 266.1,487.2 293.6,487.2 293.6,445.4 511.6,445.4 511.6,100 524.9,100 524.9,458.7 306.9,458.7 		"/>
	</g>
	<g id="XMLID_64_">
		<polygon id="XMLID_92_" class="st0" points="40.6,456 31.1,446.7 64.4,413.1 64.4,78.1 77.6,78.1 77.6,418.6 		"/>
	</g>
	<g id="XMLID_63_">
		<path id="XMLID_86_" class="st1" d="M488,78.8"/>
	</g>
	<g id="XMLID_62_">
		<rect id="XMLID_90_" x="473.8" y="79.1" class="st0" width="13.3" height="337.4"/>
	</g>
	<g id="XMLID_61_">
		<path id="XMLID_67_" class="st2" d="M515.9,449.1"/>
	</g>
	<g id="XMLID_60_">
		
			<rect id="XMLID_88_" x="472.2" y="426" transform="matrix(0.6978 0.7163 -0.7163 0.6978 460.7522 -226.9199)" class="st0" width="54.2" height="13.3"/>
	</g>
	<g id="XMLID_59_">
		<path id="XMLID_87_" class="st0" d="M276.6,459.7L278,94l13.3,0.1L290,427.1l8.8-9c7.1-7.5,16.9-11.6,27.6-11.6h154.6v13.3H326.5
			c-7,0-13.5,2.7-18.1,7.6L276.6,459.7z"/>
	</g>
	<g id="XMLID_58_">
		<path id="XMLID_40_" class="st2" d="M71,415.9"/>
	</g>
	<g id="XMLID_57_">
		<path id="XMLID_85_" class="st0" d="M281.4,457.3l-32.5-32c-3.5-3.5-8.1-5.4-12.9-5.4H73v-13.3h162.9c8.4,0,16.3,3.3,22.3,9.2
			l9.9,9.8V93.7h13.3V457.3z"/>
	</g>
	<g id="XMLID_56_">
		<rect id="XMLID_84_" x="259.5" y="445.4" class="st0" width="40.8" height="13.3"/>
	</g>
	<g id="XMLID_55_">
		<rect id="XMLID_83_" x="92.2" y="131.6" class="st0" width="156.3" height="13.3"/>
	</g>
	<g id="XMLID_54_">
		<rect id="XMLID_82_" x="92.2" y="170.4" class="st0" width="156.3" height="13.3"/>
	</g>
	<g id="XMLID_53_">
		<rect id="XMLID_81_" x="92.2" y="209.2" class="st0" width="156.3" height="13.3"/>
	</g>
	<g id="XMLID_52_">
		<rect id="XMLID_80_" x="92.2" y="248" class="st0" width="156.3" height="13.3"/>
	</g>
	<g id="XMLID_51_">
		<rect id="XMLID_79_" x="92.2" y="286.8" class="st0" width="156.3" height="13.3"/>
	</g>
	<g id="XMLID_50_">
		<rect id="XMLID_78_" x="92.2" y="325.6" class="st0" width="156.3" height="13.3"/>
	</g>
	<g id="XMLID_49_">
		<rect id="XMLID_77_" x="303.9" y="131.6" class="st0" width="156.3" height="13.3"/>
	</g>
	<g id="XMLID_48_">
		<rect id="XMLID_76_" x="303.9" y="170.4" class="st0" width="156.3" height="13.3"/>
	</g>
	<g id="XMLID_47_">
		<rect id="XMLID_75_" x="303.9" y="209.2" class="st0" width="156.3" height="13.3"/>
	</g>
	<g id="XMLID_46_">
		<rect id="XMLID_74_" x="303.9" y="248" class="st0" width="156.3" height="13.3"/>
	</g>
	<g id="XMLID_45_">
		<rect id="XMLID_73_" x="303.9" y="290.8" class="st0" width="69" height="13.3"/>
	</g>
	<g id="XMLID_44_">
		<rect id="XMLID_72_" x="303.9" y="319.7" class="st0" width="69" height="13.3"/>
	</g>
	<g id="XMLID_43_">
		<rect id="XMLID_71_" x="303.9" y="348.2" class="st0" width="69" height="13.3"/>
	</g>
	<g id="XMLID_42_">
		<path id="XMLID_68_" class="st0" d="M462.8,365.4h-78.6v-78.6h78.6V365.4z M397.5,352.2h52.1v-52.1h-52.1V352.2z"/>
	</g>
</g>
</svg>
