<?xml version="1.0" encoding="utf-8"?>
<!-- Generator: Adobe Illustrator 19.0.0, SVG Export Plug-In . SVG Version: 6.00 Build 0)  -->
<svg version="1.1" id="Layer_1" xmlns="http://www.w3.org/2000/svg" xmlns:xlink="http://www.w3.org/1999/xlink" x="0px" y="0px"
	 viewBox="-229 31 500 500" style="enable-background:new -229 31 500 500;" xml:space="preserve">
<style type="text/css">
	.st0{fill:#FFFFFF;}
</style>
<path class="st0" d="M181,71h-320c-27.6,0-50,22.4-50,50v320c0,27.6,22.4,50,50,50h320c27.6,0,50-22.4,50-50V121
	C231,93.4,208.6,71,181,71z M141,221h-20c-21.4,0-30,5-30,20v30h50l-10,50H91v150H41V321H1v-50h40v-30c0-40,20-70,60-70
	c29,0,40,10,40,10V221z"/>
</svg>
