<?xml version="1.0" encoding="utf-8"?>
<!-- Generator: Adobe Illustrator 19.0.0, SVG Export Plug-In . SVG Version: 6.00 Build 0)  -->
<svg version="1.1" id="Layer_1" xmlns="http://www.w3.org/2000/svg" xmlns:xlink="http://www.w3.org/1999/xlink" x="0px" y="0px"
	 viewBox="-229 31 500 500" style="enable-background:new -229 31 500 500;" xml:space="preserve">
<path d="M181,71h-320c-27.6,0-50,22.4-50,50v320c0,27.6,22.4,50,50,50h320c27.6,0,50-22.4,50-50V121C231,93.4,208.6,71,181,71z
	 M-59,231v190h-60V231H-59z M-119,175.7c0-14,12-24.7,30-24.7s29.3,10.7,30,24.7c0,14-11.2,25.3-30,25.3
	C-107,201-119,189.7-119,175.7z M161,421h-60c0,0,0-92.6,0-100c0-20-10-40-35-40.4h-0.8C41,280.6,31,301.2,31,321c0,9.1,0,100,0,100
	h-60V231h60v25.6c0,0,19.3-25.6,58.1-25.6c39.7,0,71.9,27.3,71.9,82.6V421z"/>
</svg>
