<?xml version="1.0" encoding="utf-8"?>
<!-- Generator: Adobe Illustrator 19.0.0, SVG Export Plug-In . SVG Version: 6.00 Build 0)  -->
<svg version="1.1" id="Layer_1" focusable="false" xmlns="http://www.w3.org/2000/svg" xmlns:xlink="http://www.w3.org/1999/xlink"
	 x="0px" y="0px" viewBox="-81 141 448 512" style="enable-background:new -81 141 448 512;" xml:space="preserve">
<style type="text/css">
	.st0{fill:#FFFFFF;}
</style>
<path class="st0" d="M143,343.7c-29.5,0-53.3,23.9-53.3,53.4c0,29.5,23.9,53.3,53.4,53.3c29.5,0,53.3-23.9,53.3-53.3
	C196.3,367.5,172.5,343.7,143,343.7z M267.7,302.7c-5.5-13.9-16.5-24.9-30.4-30.4c-21-8.3-71-6.4-94.3-6.4s-73.3-1.9-94.3,6.4
	c-13.9,5.5-24.9,16.5-30.4,30.4c-8.3,21-6.4,71.1-6.4,94.3c0,23.3-1.8,73.3,6.5,94.3c5.5,13.9,16.5,24.9,30.4,30.4
	c21,8.3,71,6.4,94.3,6.4s73.2,1.9,94.3-6.4c13.9-5.5,24.9-16.5,30.4-30.4c8.4-21,6.4-71.1,6.4-94.3
	C274.2,373.7,276.1,323.7,267.7,302.7L267.7,302.7z M143,479c-45.3,0-82-36.7-82-82s36.7-82,82-82s82,36.7,82,82
	c0.1,45.2-36.6,81.9-81.8,82C143.1,479,143.1,479,143,479z M228.4,330.7c-10.6,0-19.1-8.6-19.1-19.1c0-10.6,8.6-19.1,19.1-19.2
	c10.6,0,19.1,8.6,19.1,19.1c0,0,0,0,0,0c0,10.5-8.5,19.1-19,19.2C228.5,330.7,228.4,330.7,228.4,330.7L228.4,330.7z M319,173H-33
	c-26.5,0-48,21.5-48,48v352c0,26.5,21.5,48,48,48h352c26.5,0,48-21.5,48-48V221C367,194.5,345.5,173,319,173z M301.9,463
	c-1.3,25.6-7.1,48.3-25.9,67c-18.7,18.7-41.4,24.6-67,25.8c-26.4,1.5-105.6,1.5-132,0c-25.6-1.3-48.3-7.1-67-25.8
	s-24.6-41.4-25.8-67c-1.5-26.4-1.5-105.6,0-132c1.3-25.6,7.1-48.3,25.8-67s41.5-24.6,67-25.8c26.4-1.5,105.6-1.5,132,0
	c25.6,1.3,48.3,7.1,67,25.9c18.7,18.7,24.6,41.4,25.9,67C303.4,357.4,303.4,436.6,301.9,463z"/>
</svg>
