<?xml version="1.0" encoding="utf-8"?>
<!-- Generator: Adobe Illustrator 19.0.0, SVG Export Plug-In . SVG Version: 6.00 Build 0)  -->
<svg version="1.1" id="Layer_1" xmlns="http://www.w3.org/2000/svg" xmlns:xlink="http://www.w3.org/1999/xlink" x="0px" y="0px"
	 viewBox="0 0 560 560" style="enable-background:new 0 0 560 560;" xml:space="preserve">
<style type="text/css">
	.st0{fill:#9D9D9C;}
	.st1{fill:none;stroke:#9D9D9C;stroke-width:7;stroke-miterlimit:10;}
	.st2{fill:none;stroke:#000000;stroke-width:7;stroke-miterlimit:10;}
	.st3{fill:#EBB700;}
	.st4{fill:#EBB700;stroke:#000000;stroke-width:7;stroke-miterlimit:10;}
	.st5{enable-background:new    ;}
	.st6{fill:#447ABD;}
	.st7{fill:#FFFFFF;}
</style>
<g id="XMLID_121_">
	<g id="XMLID_229_">
		<path id="XMLID_123_" class="st0" d="M107.9,442.1c-31.5,0-62.3-7.3-92.1-22C9,416.7,4.5,409.5,4.5,401.8V169.9h15.2v231.8
			c0,2.1,1.2,4,3,4.9c56,27.6,113.6,27.5,176-0.3c1.9-0.8,3.1-2.7,3.1-4.8V170.1h15.2v231.4c0,8.1-4.8,15.4-12.2,18.5
			C171.9,434.8,139.5,442.1,107.9,442.1z"/>
	</g>
	<g id="XMLID_227_">
		<path id="XMLID_122_" class="st0" d="M110.7,268.4c-34.3,0-68.5-10.1-102.5-30.4L16,225c62.9,37.5,126.6,37.5,189.4,0l7.8,12.9
			C179.2,258.2,145,268.4,110.7,268.4z"/>
	</g>
	<g id="XMLID_225_">
		<path id="XMLID_109_" class="st1" d="M12.1,170.1"/>
	</g>
	<g id="XMLID_221_">
		<path id="XMLID_118_" class="st0" d="M110.7,211C59.2,211,4.5,195.8,4.5,167.6c0-28.2,54.7-43.5,106.2-43.5s106.2,15.2,106.2,43.5
			C216.9,195.8,162.2,211,110.7,211z M110.7,139.1c-55.6,0-91,16.8-91,28.4s35.5,28.4,91,28.4s91-16.8,91-28.4
			S166.3,139.1,110.7,139.1z"/>
	</g>
	<g id="XMLID_219_">
		<path id="XMLID_117_" class="st0" d="M329.5,440.6c-31.5,0-62.3-7.3-92.1-22c-6.9-3.4-11.4-10.6-11.4-18.4V56.5h15.2v343.8
			c0,2.1,1.2,4,3,4.9c56,27.6,113.6,27.5,176-0.3c1.9-0.8,3.1-2.7,3.1-4.8V56.5h15.2V400c0,8.1-4.8,15.4-12.2,18.5
			C393.4,433.3,361,440.6,329.5,440.6z"/>
	</g>
	<g id="XMLID_217_">
		<path id="XMLID_116_" class="st0" d="M332.2,384.6c-34.3,0-68.5-10.1-102.5-30.4l7.8-12.9c62.8,37.5,126.6,37.5,189.4,0l7.8,12.9
			C400.8,374.5,366.5,384.6,332.2,384.6z"/>
	</g>
	<g id="XMLID_215_">
		<path id="XMLID_108_" class="st1" d="M233.6,168.6"/>
	</g>
	<g id="XMLID_211_">
		<path id="XMLID_112_" class="st0" d="M332.2,96.3C280.8,96.3,226,81.1,226,52.8c0-28.2,54.7-43.5,106.2-43.5
			s106.2,15.2,106.2,43.5C438.5,81.1,383.7,96.3,332.2,96.3z M332.2,24.4c-55.6,0-91,16.8-91,28.4c0,11.6,35.5,28.4,91,28.4
			s91-16.8,91-28.4C423.3,41.2,387.8,24.4,332.2,24.4z"/>
	</g>
	<g id="XMLID_209_">
		<path id="XMLID_111_" class="st0" d="M332.2,217.2c-34.3,0-68.5-10.1-102.5-30.4l7.8-12.9c62.8,37.5,126.6,37.5,189.4,0l7.8,12.9
			C400.8,207,366.5,217.2,332.2,217.2z"/>
	</g>
	<g id="XMLID_207_">
		<path id="XMLID_110_" class="st0" d="M332.2,156.9c-34.3,0-68.5-10.1-102.5-30.4l7.8-12.9c62.8,37.5,126.6,37.5,189.4,0l7.8,12.9
			C400.8,146.7,366.5,156.9,332.2,156.9z"/>
	</g>
	<g id="XMLID_205_">
		<path id="XMLID_105_" class="st2" d="M209.3,347.5"/>
	</g>
	<g id="XMLID_194_">
		<g id="XMLID_202_">
			<path id="XMLID_106_" class="st3" d="M209.3,331.6v68.9c0,5.2-3,9.7-7.6,11.6c-62.6,28-123.6,29.3-182.5,0.2
				c-4.3-2.2-7.2-6.7-7.2-11.6v-70.8"/>
			<path id="XMLID_107_" d="M107.9,441c-31.5,0-62.3-7.3-92.1-22C9,415.6,4.5,408.4,4.5,400.7v-70.8h15.2v70.8c0,2.1,1.2,4,3,4.9
				c56,27.6,113.6,27.5,176-0.3c1.9-0.8,3.1-2.7,3.1-4.8v-68.9h15.2v68.9c0,8.1-4.8,15.4-12.2,18.5C171.9,433.7,139.5,441,107.9,441
				z"/>
		</g>
		<g id="XMLID_200_">
			<path id="XMLID_61_" class="st4" d="M12.1,348.2"/>
		</g>
		<g id="XMLID_195_">
			<ellipse id="XMLID_101_" class="st3" cx="110.7" cy="330.1" rx="98.6" ry="35.9"/>
			<path id="XMLID_102_" d="M110.7,373.6c-51.5,0-106.2-15.2-106.2-43.5c0-28.2,54.7-43.5,106.2-43.5s106.2,15.2,106.2,43.5
				C216.9,358.3,162.2,373.6,110.7,373.6z M110.7,301.7c-55.6,0-91,16.8-91,28.4s35.5,28.4,91,28.4s91-16.8,91-28.4
				S166.3,301.7,110.7,301.7z"/>
		</g>
	</g>
	<g id="XMLID_191_">
		<path id="XMLID_99_" class="st3" d="M430.9,281.4v116.9c0,5.2-3,9.7-7.6,11.6c-62.6,28-123.6,29.3-182.5,0.2
			c-4.3-2.2-7.2-6.7-7.2-11.6V284.7"/>
		<path id="XMLID_100_" d="M329.5,438.9c-31.5,0-62.3-7.3-92.1-22c-6.9-3.4-11.4-10.6-11.4-18.4V284.7h15.2v113.9c0,2.1,1.2,4,3,4.9
			c56,27.6,113.6,27.5,176-0.3c1.9-0.8,3.1-2.7,3.1-4.8V281.4h15.2v116.9c0,8.1-4.8,15.4-12.2,18.5
			C393.4,431.5,361,438.9,329.5,438.9z"/>
	</g>
	<g id="XMLID_188_">
		<path id="XMLID_97_" class="st3" d="M430.9,346c-65.7,39.2-131.6,39.2-197.3,0"/>
		<path id="XMLID_98_" d="M332.2,382.9c-34.3,0-68.5-10.1-102.5-30.4l7.8-12.9c62.8,37.5,126.6,37.5,189.4,0l7.8,12.9
			C400.8,372.7,366.5,382.9,332.2,382.9z"/>
	</g>
	<g id="XMLID_183_">
		<ellipse id="XMLID_93_" class="st3" cx="332.2" cy="284.2" rx="98.6" ry="35.9"/>
		<path id="XMLID_94_" d="M332.2,327.7c-51.5,0-106.2-15.2-106.2-43.5c0-28.2,54.7-43.5,106.2-43.5s106.2,15.2,106.2,43.5
			C438.5,312.5,383.7,327.7,332.2,327.7z M332.2,255.8c-55.6,0-91,16.8-91,28.4s35.5,28.4,91,28.4s91-16.8,91-28.4
			S387.8,255.8,332.2,255.8z"/>
	</g>
	<g id="XMLID_147_" class="st5">
		<path id="XMLID_62_" d="M47.2,532v-61.6h8.2V532H47.2z"/>
		<path id="XMLID_64_" d="M68.9,532v-44.6h6.9v6.3c3.3-4.9,8.1-7.4,14.3-7.4c2.7,0,5.2,0.5,7.5,1.5c2.3,1,4,2.2,5.1,3.8
			c1.1,1.6,1.9,3.4,2.4,5.6c0.3,1.4,0.4,3.9,0.4,7.4V532h-7.6v-27.2c0-3.1-0.3-5.4-0.9-6.9c-0.6-1.5-1.6-2.7-3.2-3.7
			c-1.5-0.9-3.3-1.4-5.3-1.4c-3.2,0-6,1-8.4,3.1c-2.4,2-3.5,5.9-3.5,11.6V532H68.9z"/>
		<path id="XMLID_66_" d="M133.8,525.2l1.1,6.7c-2.1,0.4-4.1,0.7-5.8,0.7c-2.8,0-4.9-0.4-6.4-1.3s-2.6-2-3.2-3.4
			c-0.6-1.4-0.9-4.4-0.9-8.9v-25.7h-5.6v-5.9h5.6v-11.1l7.6-4.5v15.6h7.7v5.9h-7.7v26.1c0,2.2,0.1,3.5,0.4,4.2
			c0.3,0.6,0.7,1.1,1.3,1.5c0.6,0.4,1.5,0.5,2.6,0.5C131.3,525.5,132.4,525.4,133.8,525.2z"/>
		<path id="XMLID_68_" d="M172,517.6l7.9,1c-1.2,4.6-3.5,8.1-6.9,10.6c-3.4,2.5-7.7,3.8-12.9,3.8c-6.6,0-11.8-2-15.6-6
			c-3.9-4-5.8-9.7-5.8-16.9c0-7.5,1.9-13.3,5.8-17.5c3.9-4.1,8.9-6.2,15.2-6.2c6,0,10.9,2,14.7,6.1c3.8,4.1,5.7,9.8,5.7,17.2
			c0,0.4,0,1.1,0,2h-33.5c0.3,4.9,1.7,8.7,4.2,11.3c2.5,2.6,5.6,3.9,9.4,3.9c2.8,0,5.2-0.7,7.2-2.2
			C169.3,523.1,170.8,520.8,172,517.6z M147,505.4h25.1c-0.3-3.8-1.3-6.6-2.9-8.5c-2.4-2.9-5.6-4.4-9.4-4.4c-3.5,0-6.4,1.2-8.8,3.5
			C148.5,498.4,147.2,501.5,147,505.4z"/>
		<path id="XMLID_71_" d="M189.3,532v-44.6h6.9v6.8c1.7-3.2,3.4-5.3,4.8-6.3c1.5-1,3.1-1.5,4.9-1.5c2.6,0,5.2,0.8,7.8,2.4l-2.6,7
			c-1.9-1.1-3.7-1.6-5.6-1.6c-1.7,0-3.2,0.5-4.5,1.5c-1.3,1-2.3,2.4-2.8,4.1c-0.8,2.7-1.3,5.6-1.3,8.8V532H189.3z"/>
		<path id="XMLID_73_" d="M218.3,532v-44.6h6.9v6.3c3.3-4.9,8.1-7.4,14.3-7.4c2.7,0,5.2,0.5,7.5,1.5c2.3,1,4,2.2,5.1,3.8
			c1.1,1.6,1.9,3.4,2.4,5.6c0.3,1.4,0.4,3.9,0.4,7.4V532h-7.6v-27.2c0-3.1-0.3-5.4-0.9-6.9c-0.6-1.5-1.6-2.7-3.2-3.7
			c-1.5-0.9-3.3-1.4-5.3-1.4c-3.2,0-6,1-8.4,3.1c-2.4,2-3.5,5.9-3.5,11.6V532H218.3z"/>
		<path id="XMLID_75_" d="M295.9,526.5c-2.8,2.4-5.5,4.1-8.1,5c-2.6,1-5.4,1.5-8.4,1.5c-4.9,0-8.7-1.2-11.4-3.6
			c-2.7-2.4-4-5.5-4-9.2c0-2.2,0.5-4.2,1.5-6c1-1.8,2.3-3.3,3.9-4.4c1.6-1.1,3.5-1.9,5.5-2.5c1.5-0.4,3.8-0.8,6.8-1.1
			c6.2-0.7,10.7-1.6,13.6-2.6c0-1,0-1.7,0-2c0-3.1-0.7-5.3-2.2-6.5c-1.9-1.7-4.8-2.6-8.7-2.6c-3.6,0-6.2,0.6-7.9,1.9
			c-1.7,1.2-3,3.5-3.8,6.6l-7.5-1c0.7-3.2,1.8-5.7,3.3-7.7c1.6-1.9,3.8-3.4,6.7-4.5c2.9-1.1,6.3-1.6,10.2-1.6c3.8,0,7,0.4,9.4,1.3
			c2.4,0.9,4.2,2,5.3,3.4c1.1,1.4,1.9,3.1,2.4,5.2c0.3,1.3,0.4,3.6,0.4,7v10.1c0,7,0.2,11.5,0.5,13.3c0.3,1.9,1,3.7,1.9,5.4h-8
			C296.6,530.4,296.1,528.6,295.9,526.5z M295.2,509.6c-2.8,1.1-6.9,2.1-12.4,2.9c-3.1,0.4-5.3,1-6.6,1.5c-1.3,0.6-2.3,1.4-3,2.5
			c-0.7,1.1-1.1,2.3-1.1,3.6c0,2,0.8,3.7,2.3,5c1.5,1.3,3.8,2,6.8,2c2.9,0,5.5-0.6,7.8-1.9c2.3-1.3,4-3,5-5.2
			c0.8-1.7,1.2-4.2,1.2-7.6V509.6z"/>
		<path id="XMLID_78_" d="M331.4,525.2l1.1,6.7c-2.1,0.4-4.1,0.7-5.8,0.7c-2.8,0-4.9-0.4-6.4-1.3s-2.6-2-3.2-3.4
			c-0.6-1.4-0.9-4.4-0.9-8.9v-25.7h-5.6v-5.9h5.6v-11.1l7.6-4.5v15.6h7.7v5.9h-7.7v26.1c0,2.2,0.1,3.5,0.4,4.2
			c0.3,0.6,0.7,1.1,1.3,1.5c0.6,0.4,1.5,0.5,2.6,0.5C328.9,525.5,330,525.4,331.4,525.2z"/>
		<path id="XMLID_80_" d="M338.9,479.1v-8.7h7.6v8.7H338.9z M338.9,532v-44.6h7.6V532H338.9z"/>
		<path id="XMLID_83_" d="M355.3,509.7c0-8.3,2.3-14.4,6.9-18.4c3.9-3.3,8.6-5,14.1-5c6.2,0,11.2,2,15.2,6c3.9,4,5.9,9.6,5.9,16.7
			c0,5.7-0.9,10.3-2.6,13.6c-1.7,3.3-4.3,5.9-7.6,7.7c-3.3,1.8-6.9,2.7-10.9,2.7c-6.3,0-11.4-2-15.3-6
			C357.2,523,355.3,517.2,355.3,509.7z M363.1,509.7c0,5.7,1.3,10,3.8,12.8c2.5,2.8,5.7,4.3,9.5,4.3c3.8,0,6.9-1.4,9.4-4.3
			c2.5-2.9,3.8-7.2,3.8-13.1c0-5.5-1.3-9.7-3.8-12.5c-2.5-2.8-5.7-4.3-9.4-4.3c-3.8,0-7,1.4-9.5,4.2
			C364.3,499.7,363.1,503.9,363.1,509.7z"/>
		<path id="XMLID_86_" d="M406.3,532v-44.6h6.9v6.3c3.3-4.9,8.1-7.4,14.3-7.4c2.7,0,5.2,0.5,7.5,1.5c2.3,1,4,2.2,5.1,3.8
			c1.1,1.6,1.9,3.4,2.4,5.6c0.3,1.4,0.4,3.9,0.4,7.4V532h-7.6v-27.2c0-3.1-0.3-5.4-0.9-6.9c-0.6-1.5-1.6-2.7-3.2-3.7
			c-1.5-0.9-3.3-1.4-5.3-1.4c-3.2,0-6,1-8.4,3.1c-2.4,2-3.5,5.9-3.5,11.6V532H406.3z"/>
		<path id="XMLID_88_" d="M483.9,526.5c-2.8,2.4-5.5,4.1-8.1,5c-2.6,1-5.4,1.5-8.4,1.5c-4.9,0-8.7-1.2-11.4-3.6
			c-2.7-2.4-4-5.5-4-9.2c0-2.2,0.5-4.2,1.5-6c1-1.8,2.3-3.3,3.9-4.4c1.6-1.1,3.5-1.9,5.5-2.5c1.5-0.4,3.8-0.8,6.8-1.1
			c6.2-0.7,10.7-1.6,13.6-2.6c0-1,0-1.7,0-2c0-3.1-0.7-5.3-2.2-6.5c-1.9-1.7-4.8-2.6-8.7-2.6c-3.6,0-6.2,0.6-7.9,1.9
			c-1.7,1.2-3,3.5-3.8,6.6l-7.5-1c0.7-3.2,1.8-5.7,3.3-7.7c1.6-1.9,3.8-3.4,6.7-4.5c2.9-1.1,6.3-1.6,10.2-1.6c3.8,0,7,0.4,9.4,1.3
			c2.4,0.9,4.2,2,5.3,3.4c1.1,1.4,1.9,3.1,2.4,5.2c0.3,1.3,0.4,3.6,0.4,7v10.1c0,7,0.2,11.5,0.5,13.3c0.3,1.9,1,3.7,1.9,5.4h-8
			C484.6,530.4,484.1,528.6,483.9,526.5z M483.2,509.6c-2.8,1.1-6.9,2.1-12.4,2.9c-3.1,0.4-5.3,1-6.6,1.5c-1.3,0.6-2.3,1.4-3,2.5
			c-0.7,1.1-1.1,2.3-1.1,3.6c0,2,0.8,3.7,2.3,5c1.5,1.3,3.8,2,6.8,2c2.9,0,5.5-0.6,7.8-1.9s4-3,5-5.2c0.8-1.7,1.2-4.2,1.2-7.6V509.6
			z"/>
		<path id="XMLID_91_" d="M502.6,532v-61.6h7.6V532H502.6z"/>
	</g>
	<g id="Ellipse_9_3_">
		<ellipse id="XMLID_40_" class="st6" cx="430.9" cy="322.5" rx="124.6" ry="123.8"/>
	</g>
	<g id="XMLID_135_" class="st5">
		<path id="XMLID_51_" d="M390.8,344.5v7.4h-41.5c-0.1-1.8,0.2-3.6,0.9-5.3c1.1-2.8,2.8-5.6,5.1-8.3c2.3-2.7,5.7-5.9,10.1-9.5
			c6.8-5.6,11.4-10,13.9-13.2c2.4-3.2,3.6-6.3,3.6-9.2c0-3-1.1-5.6-3.3-7.7c-2.2-2.1-5-3.1-8.6-3.1c-3.7,0-6.7,1.1-8.9,3.3
			c-2.2,2.2-3.4,5.3-3.4,9.2l-7.9-0.8c0.5-5.9,2.6-10.4,6.1-13.4c3.5-3.1,8.3-4.6,14.3-4.6c6,0,10.8,1.7,14.3,5
			c3.5,3.3,5.3,7.4,5.3,12.3c0,2.5-0.5,5-1.5,7.4c-1,2.4-2.7,5-5.1,7.6c-2.4,2.7-6.4,6.3-11.9,11c-4.6,3.9-7.6,6.5-8.9,7.9
			c-1.3,1.4-2.4,2.8-3.3,4.2H390.8z"/>
		<path id="XMLID_53_" d="M399,335.5l8.1-0.7c0.6,3.9,2,6.9,4.2,8.8c2.2,2,4.8,3,7.9,3c3.7,0,6.9-1.4,9.4-4.2
			c2.6-2.8,3.9-6.5,3.9-11.1c0-4.4-1.2-7.8-3.7-10.3s-5.7-3.8-9.7-3.8c-2.5,0-4.7,0.6-6.7,1.7c-2,1.1-3.6,2.6-4.7,4.4l-7.2-0.9
			l6.1-32.1h31.3v7.3h-25.1l-3.4,16.8c3.8-2.6,7.7-3.9,11.9-3.9c5.5,0,10.1,1.9,13.9,5.7c3.8,3.8,5.7,8.6,5.7,14.6
			c0,5.6-1.7,10.5-5,14.6c-4,5.1-9.5,7.6-16.5,7.6c-5.7,0-10.4-1.6-14-4.8C401.6,345,399.6,340.8,399,335.5z"/>
		<path id="XMLID_55_" d="M449.3,304.5c0-4.5,1.1-8.2,3.4-11.4c2.3-3.1,5.5-4.7,9.8-4.7c3.9,0,7.2,1.4,9.8,4.2s3.9,6.9,3.9,12.3
			c0,5.3-1.3,9.3-3.9,12.2c-2.6,2.9-5.8,4.3-9.7,4.3c-3.8,0-7-1.4-9.5-4.2C450.6,314.4,449.3,310.1,449.3,304.5z M462.8,293.7
			c-1.9,0-3.5,0.8-4.8,2.5s-1.9,4.7-1.9,9.1c0,4,0.6,6.8,1.9,8.5c1.3,1.6,2.9,2.4,4.8,2.4c1.9,0,3.6-0.8,4.8-2.5
			c1.3-1.6,1.9-4.7,1.9-9c0-4-0.6-6.9-1.9-8.5C466.3,294.5,464.7,293.7,462.8,293.7z M462.8,354.2l34.4-65.8h6.3l-34.3,65.8H462.8z
			 M490,337.3c0-4.5,1.1-8.3,3.4-11.4c2.3-3.1,5.5-4.7,9.9-4.7c3.9,0,7.2,1.4,9.8,4.2c2.6,2.8,3.9,6.9,3.9,12.3
			c0,5.3-1.3,9.3-3.9,12.2c-2.6,2.9-5.9,4.3-9.7,4.3c-3.8,0-7-1.4-9.5-4.2C491.3,347.1,490,342.9,490,337.3z M503.5,326.5
			c-1.9,0-3.6,0.8-4.8,2.5s-1.9,4.7-1.9,9.1c0,4,0.6,6.8,1.9,8.4c1.3,1.6,2.9,2.5,4.8,2.5c2,0,3.6-0.8,4.9-2.5
			c1.3-1.6,1.9-4.7,1.9-9c0-4-0.6-6.9-1.9-8.5C507,327.3,505.4,326.5,503.5,326.5z"/>
	</g>
	<g id="XMLID_124_" class="st5">
		<path id="XMLID_41_" class="st7" d="M390.8,344.5v7.4h-41.5c-0.1-1.8,0.2-3.6,0.9-5.3c1.1-2.8,2.8-5.6,5.1-8.3
			c2.3-2.7,5.7-5.9,10.1-9.5c6.8-5.6,11.4-10,13.9-13.2c2.4-3.2,3.6-6.3,3.6-9.2c0-3-1.1-5.6-3.3-7.7c-2.2-2.1-5-3.1-8.6-3.1
			c-3.7,0-6.7,1.1-8.9,3.3c-2.2,2.2-3.4,5.3-3.4,9.2l-7.9-0.8c0.5-5.9,2.6-10.4,6.1-13.4c3.5-3.1,8.3-4.6,14.3-4.6
			c6,0,10.8,1.7,14.3,5c3.5,3.3,5.3,7.4,5.3,12.3c0,2.5-0.5,5-1.5,7.4c-1,2.4-2.7,5-5.1,7.6c-2.4,2.7-6.4,6.3-11.9,11
			c-4.6,3.9-7.6,6.5-8.9,7.9c-1.3,1.4-2.4,2.8-3.3,4.2H390.8z"/>
		<path id="XMLID_43_" class="st7" d="M399,335.5l8.1-0.7c0.6,3.9,2,6.9,4.2,8.8c2.2,2,4.8,3,7.9,3c3.7,0,6.9-1.4,9.4-4.2
			c2.6-2.8,3.9-6.5,3.9-11.1c0-4.4-1.2-7.8-3.7-10.3s-5.7-3.8-9.7-3.8c-2.5,0-4.7,0.6-6.7,1.7c-2,1.1-3.6,2.6-4.7,4.4l-7.2-0.9
			l6.1-32.1h31.3v7.3h-25.1l-3.4,16.8c3.8-2.6,7.7-3.9,11.9-3.9c5.5,0,10.1,1.9,13.9,5.7c3.8,3.8,5.7,8.6,5.7,14.6
			c0,5.6-1.7,10.5-5,14.6c-4,5.1-9.5,7.6-16.5,7.6c-5.7,0-10.4-1.6-14-4.8C401.6,345,399.6,340.8,399,335.5z"/>
		<path id="XMLID_45_" class="st7" d="M449.3,304.5c0-4.5,1.1-8.2,3.4-11.4c2.3-3.1,5.5-4.7,9.8-4.7c3.9,0,7.2,1.4,9.8,4.2
			s3.9,6.9,3.9,12.3c0,5.3-1.3,9.3-3.9,12.2c-2.6,2.9-5.8,4.3-9.7,4.3c-3.8,0-7-1.4-9.5-4.2C450.6,314.4,449.3,310.1,449.3,304.5z
			 M462.8,293.7c-1.9,0-3.5,0.8-4.8,2.5s-1.9,4.7-1.9,9.1c0,4,0.6,6.8,1.9,8.5c1.3,1.6,2.9,2.4,4.8,2.4c1.9,0,3.6-0.8,4.8-2.5
			c1.3-1.6,1.9-4.7,1.9-9c0-4-0.6-6.9-1.9-8.5C466.3,294.5,464.7,293.7,462.8,293.7z M462.8,354.2l34.4-65.8h6.3l-34.3,65.8H462.8z
			 M490,337.3c0-4.5,1.1-8.3,3.4-11.4c2.3-3.1,5.5-4.7,9.9-4.7c3.9,0,7.2,1.4,9.8,4.2c2.6,2.8,3.9,6.9,3.9,12.3
			c0,5.3-1.3,9.3-3.9,12.2c-2.6,2.9-5.9,4.3-9.7,4.3c-3.8,0-7-1.4-9.5-4.2C491.3,347.1,490,342.9,490,337.3z M503.5,326.5
			c-1.9,0-3.6,0.8-4.8,2.5s-1.9,4.7-1.9,9.1c0,4,0.6,6.8,1.9,8.4c1.3,1.6,2.9,2.5,4.8,2.5c2,0,3.6-0.8,4.9-2.5
			c1.3-1.6,1.9-4.7,1.9-9c0-4-0.6-6.9-1.9-8.5C507,327.3,505.4,326.5,503.5,326.5z"/>
	</g>
</g>
</svg>
