<?xml version="1.0" encoding="utf-8"?>
<!-- Generator: Adobe Illustrator 19.0.0, SVG Export Plug-In . SVG Version: 6.00 Build 0)  -->
<svg version="1.1" id="Layer_1" xmlns="http://www.w3.org/2000/svg" xmlns:xlink="http://www.w3.org/1999/xlink" x="0px" y="0px"
	 viewBox="-96 0 353.2 560" style="enable-background:new -96 0 353.2 560;" xml:space="preserve">
<style type="text/css">
	.st0{fill:#1D1D1B;}
	.st1{fill:#437ABC;}
	.st2{fill:#FFFFFF;}
</style>
<g id="XMLID_40_">
	<path id="XMLID_27_" class="st0" d="M-73.3,255.7l-0.5-0.7l0,0C-73.7,255.2-73.5,255.5-73.3,255.7z"/>
</g>
<g id="XMLID_63_">
	<path id="XMLID_30_" class="st1" d="M253.8,176.5c0,27.6-6.4,53.9-18,76.9l-0.2,0.2l-2.7,5.3l0,0L80.5,551.6L-73.6,255.2
		c-0.2-0.2-0.2-0.5-0.5-0.7c-11.9-23.5-18.5-50-18.5-78.1c0-95.6,77.6-173,173.1-173C176.4,3.4,253.8,80.8,253.8,176.5z"/>
	<path id="XMLID_43_" class="st1" d="M80.5,559l-157-301.9c-0.1-0.1-0.2-0.3-0.3-0.4l-0.1-0.1l-0.2-0.5
		C-89.6,231.3-96,204.5-96,176.5C-96,79.2-16.8,0,80.5,0c97.4,0,176.7,79.2,176.7,176.5c0,27.5-6.4,54.6-18.4,78.5l-3,5.5L80.5,559z
		 M-70.9,253.1l0.1,0.1l151.3,291l152.2-292.6l0.2-0.2c11.4-22.8,17.4-48.7,17.4-74.9C250.3,83,174.1,6.9,80.4,6.9
		C-13.1,6.9-89.2,83-89.2,176.5c0,26.8,6,52.5,18,76.2C-71.1,252.8-71,253-70.9,253.1z"/>
</g>
<g id="XMLID_46_">
	<g id="XMLID_59_">
		<path id="XMLID_39_" class="st2" d="M80.7,295.7c-64.1,0-116.2-52.1-116.2-116.2S16.6,63.2,80.7,63.2s116.2,52.1,116.2,116.2
			S144.8,295.7,80.7,295.7z M80.7,72.4c-59,0-107.1,48-107.1,107.1s48,107.1,107.1,107.1c59,0,107.1-48,107.1-107.1
			S139.7,72.4,80.7,72.4z"/>
	</g>
	<g id="XMLID_55_">
		<path id="XMLID_35_" class="st2" d="M80.3,291.4c-3.8,0-7.5-1.5-10.3-4.1c-36.3-35.7-54.7-72.1-54.6-108.1
			c0.1-36.1,18.6-72.4,55-108.1c5.6-5.6,14.8-5.5,20.6,0.3c68.6,68.6,68.7,141,0.1,215.2c-2.6,2.9-6.2,4.6-10.2,4.8
			C80.8,291.4,80.6,291.4,80.3,291.4z M80.5,76.2c-1.3,0-2.7,0.5-3.6,1.5c-34.7,33.9-52.3,68.1-52.3,101.6
			c-0.1,33.5,17.4,67.6,51.8,101.5c1.1,1,2.6,1.6,4.2,1.5c1.5-0.1,2.8-0.7,3.8-1.8v-0.1c65.5-70.9,65.6-137.1,0.1-202.6
			C83.4,76.8,81.9,76.2,80.5,76.2z"/>
	</g>
	<g id="XMLID_53_">
		<rect id="XMLID_34_" x="-30.9" y="174.9" class="st2" width="223.3" height="9.1"/>
	</g>
	<g id="XMLID_51_">
		<rect id="XMLID_33_" x="76.1" y="67.8" class="st2" width="9.1" height="223.3"/>
	</g>
	<g id="XMLID_49_">
		<path id="XMLID_32_" class="st2" d="M163,256.9c-58.9-27.7-106.6-27.7-164.3,0l-3.9-8.2c60.6-29,110.4-29,172.2,0L163,256.9z"/>
	</g>
	<g id="XMLID_47_">
		<path id="XMLID_31_" class="st2" d="M78.6,132c-27.8,0-55.4-7.3-85.7-21.8l3.9-8.2c57.8,27.7,105.4,27.7,164.3,0l3.9,8.3
			C134.2,124.8,106.3,132,78.6,132z"/>
	</g>
</g>
</svg>
