<?xml version="1.0" encoding="utf-8"?>
<!-- Generator: Adobe Illustrator 19.0.0, SVG Export Plug-In . SVG Version: 6.00 Build 0)  -->
<svg version="1.1" id="Bold" xmlns="http://www.w3.org/2000/svg" xmlns:xlink="http://www.w3.org/1999/xlink" x="0px" y="0px"
	 viewBox="-49 141 512 512" style="enable-background:new -49 141 512 512;" xml:space="preserve">
<style type="text/css">
	.st0{fill:#FFFFFF;}
</style>
<path class="st0" d="M462.9,653L462.9,653l0.1,0V465.2c0-91.9-19.8-162.6-127.2-162.6c-51.6,0-86.3,28.3-100.4,55.2h-1.5v-46.6
	H132.1V653h106V483.7c0-44.6,8.4-87.7,63.6-87.7c54.4,0,55.2,50.9,55.2,90.5V653L462.9,653z"/>
<path class="st0" d="M-40.6,311.2H65.6V653H-40.6L-40.6,311.2z"/>
<path class="st0" d="M12.5,141c-33.9,0-61.5,27.5-61.5,61.5s27.5,62.1,61.5,62.1S74,236.4,74,202.5C73.9,168.5,46.4,141,12.5,141z"
	/>
</svg>
