<?xml version="1.0" encoding="utf-8"?>
<!-- Generator: Adobe Illustrator 19.0.0, SVG Export Plug-In . SVG Version: 6.00 Build 0)  -->
<svg version="1.1" id="Layer_1" xmlns="http://www.w3.org/2000/svg" xmlns:xlink="http://www.w3.org/1999/xlink" x="0px" y="0px"
	 viewBox="-95.9 0 353.8 560" style="enable-background:new -95.9 0 353.8 560;" xml:space="preserve">
<style type="text/css">
	.st0{fill:#437ABC;}
	.st1{fill:#1D1D1B;}
	.st2{fill:#FFFFFF;}
</style>
<g id="XMLID_42_">
	<path id="XMLID_32_" class="st0" d="M254.5,176.8c0,27.7-6.4,54-18.1,77.1l-0.2,0.2l-2.7,5.3l0,0L80.9,552.6L-73.5,255.7
		c-0.2-0.2-0.2-0.5-0.5-0.7c-11.9-23.6-18.5-50.1-18.5-78.2C-92.5,81-14.7,3.4,80.9,3.4C176.9,3.4,254.5,81,254.5,176.8z"/>
	<path id="XMLID_33_" class="st0" d="M80.9,560L-76.4,257.6c-0.1-0.1-0.2-0.3-0.3-0.4l-0.1-0.1l-0.2-0.5
		c-12.5-24.8-18.9-51.7-18.9-79.8C-95.9,79.3-16.6,0,80.9,0c97.6,0,177,79.3,177,176.8c0,27.6-6.4,54.7-18.4,78.6l-3,5.5L80.9,560z
		 M-70.8,253.5l0.1,0.1l0.2,0.5l151.3,291L233.4,252l0.2-0.2c11.4-22.8,17.5-48.7,17.5-75C251,83.1,174.7,6.9,80.9,6.9
		C-12.8,6.9-89,83.1-89,176.8c0,26.9,6.1,52.6,18,76.4C-70.9,253.3-70.9,253.4-70.8,253.5z"/>
</g>
<g id="XMLID_40_">
	<path id="XMLID_27_" class="st1" d="M-73.3,255.7l-0.5-0.7l0,0C-73.7,255.2-73.5,255.5-73.3,255.7z"/>
</g>
<g id="XMLID_36_">
	<path id="XMLID_29_" class="st2" d="M103.9,380.7c-0.5,0-1.1-0.1-1.6-0.2c-4.2-1.2-9.9-4.4-17.2-8.9c-3.3-2-5.3-5.6-5.3-9.6v-9.4
		c0-2-0.4-3.9-1.1-5.8c-1.5-3.5-4.7-8.2-9.3-14l-0.1-0.2c-6.5-9.4-10.4-15.7-12.8-20.5c-1.5-3-1.8-6.6-0.9-10l1.2-4
		c0.4-1.3,0.5-2.6,0.5-3.8l-0.5-9.7c0-3.1,1.1-5.7,3.2-7.5c1.5-1.5,2.8-2.8,3.8-4c1-1.4,1.8-2.8,2.3-4.7l0.7-2.2
		c0.5-1.6,1.1-3.1,2.2-4.7l0.8-1.3c-0.1,0-0.3-0.1-0.4-0.1c-0.8-0.3-1.8-0.3-2.8-0.1c-2.7,0.3-5.2,0-7.7-0.8
		c-3.4-0.9-5.6-4.3-5.2-7.8l0.2-2c0.4-2.9,1.5-5.3,3.3-7.1l1.4-1.7c-1.1-3.3-3.1-6.4-5.9-9.4l-0.2-0.2c-1.6-2-2.4-4.1-2.4-6.3
		c0-4.2-2.7-8.1-8.3-11.8l-0.2-0.2c-1.3-1-2.9-2.3-3.9-4.3c-1.2-2-2.6-2.6-3.6-2.7c-1.4-0.4-2.6-0.9-3.6-1.4l-0.4-0.2
		c-6.8-4.5-10.2-8.9-10.2-13.4c0-3.7,2.1-7,6.3-9.9c0.4-0.3,0.4-0.4,0.4-0.6l-0.2-1l-1.1-1.3c-1.6-1.7-1.8-3.9-1.8-5v-1.6
		c-0.6-0.8-3.9-3.8-18.3-7.9c-2.3-0.6-4.1-2.8-4.1-5.4v-1.6c0-0.7,0-1.4,0.5-2.4c0.5-1.5,0.1-2,0-2.2c-1.1-1.6-1.1-3.3-1.1-4.5v-2.7
		c0-0.3-0.2-0.7-0.4-1.1c-6.1-7.1-8.7-13.2-8-18.6c0.6-4,3-7.5,7.2-10.2c0.4-0.2,0.4-0.6,0.4-0.8l-0.3-0.9l0,0c0,0-0.2-0.3-0.8-0.7
		l-1.9-1.3c-0.3-0.3-0.8-0.3-1.3-0.3l-10.6-0.2l0,0c-2.7,0-4.9-1.8-5.5-4.4c-1.7-6.2,3.4-10.9,5.1-12.5c0.9-0.9,2.4-1.5,3.9-1.4
		c-0.4-1.1-0.6-2.3-0.4-3.5l0.1-0.3c0.6-2.4,1.8-4.6,3.4-6.2c2.4-2.4,5.9-3.8,9.7-3.8h2.1c2.2,0,4.3,0.8,6.3,2.4l0.3,0.3l9.4,9.4
		c1,1,1.7,2.1,2.1,3.2c0.3,0.7,0.9,1.4,1.7,2l1,0.5l0.7-0.5c0-2.5,1.1-3.9,2.1-4.7l2.6-2.6c0.2-0.2,0.4-0.5,0.4-1v-0.9l0,0
		c0,0,0-0.1-0.1-0.2l-2-3.3c-0.1-0.3-0.3-0.7-0.5-1.1c-0.1-0.2-0.1-0.4-0.2-0.5l-0.3-0.7L26.4,79c0-2.6,2-4.6,4.6-4.6h0.5l2.8,0.8
		c1.6,0.5,2.9,1.5,3.7,2.8l1.7,2.4c0.6,0.7,4.2,2.5,6.8,3.9c1.9,1,4,2,6,3.2c1.1,0.5,2.6,1.8,3.3,4.5l0.1,0.6l0.2,4.3
		c0,0,0,0.1,0.3,0.4l3.1,2.5c1.5,0.9,2,2.5,2.2,3.1l1.2,4.3c0,0,0,0,0.1,0.1l0.3,0.3c0.2,0.3,0.9,0.7,2,1.3c0.1,0,0.2,0.1,0.3,0.1
		h1.3c-0.1-1.1,0-2.2,0.6-3.2c0.5-1,1.4-1.9,2.5-2.4v-6c0-2.3,1.8-4.1,4.1-4.1l4.7,0.1c0.1,0,0.6,0,1,0c0.2,0,0.5,0,0.7,0l1.4-0.9
		c1.5-1,3-1,4.1-1l5.6,0.2l0,0c1.9,0,3.4,1.2,4.1,1.9c1.8,1.6,3.7,3.9,5.3,6.6l0.1,0.2c0.3,0.6,0.8,1.9,0.8,3.4v7.5
		c1,1.1,1.8,2.2,2.4,3.3c0.8,1.9,1.4,3.8,1.7,5.5c0,0.1,0.1,0.2,0.1,0.3l0.2,0.3c1.8,2,4.1,3.1,6.8,3.2h14.7c1.5,0,2.6,0.4,3.4,0.6
		l0.7,0.3c0.7,0.4,1.9,0.3,3.6-0.5c1.1-0.5,2.2-0.5,2.8-0.5h3.4c0.5,0,1.4,0,2.4,0.4c1.7,0.4,3.2,1.2,4.5,2.4c2.1,0,5.9-0.2,8.1-0.4
		h0.3c2.5,0,4.5,1.6,5.2,4l1.6,6.3c0.2,0.5,0.3,0.8,0.5,1.1l0.2,0.3c2.6,4.8,5.2,9.4,8.3,12.5c1,1,1.9,2.2,2.5,3.4
		c0.9,1.9,3.3,4.9,5.2,7.3c0.5,0.7,1,1.3,1.5,1.9c1.2,1.4,1.9,3.5,1.8,5.6c-0.2,2.1-1.1,4.1-2.7,5.4l-0.5,0.3
		c-3.8,2.3-7,4.9-9.3,7.4c-0.1,0.1-0.2,0.5-0.3,1.1l-1.3,9.9c-0.4,2.6-1.8,4.7-3.8,6c-2.2,1.5-5.8,3.2-9.8,4.7
		c-1.4,0.5-2.8,1.4-3.8,2.4c-7.9,7.3-14,15.5-19.5,25.9l-0.4,0.6c-0.1,0.2-0.2,0.3-0.4,0.5c-1.1,2-3.1,10.6-4.5,16.4
		c-0.5,2.4-1.7,4.6-3.5,6.7l-0.2,0.2c-16.3,15.8-22.8,32.7-19.8,51.7c0.1,0.7,0.2,1.4,0.3,2.2c0.1,0.5,0.1,1.1,0.2,1.7v0.4
		c0.6,14.3,1.5,28.6,3.5,36.1c2.9,10.7,3.8,19.8,2.6,27.1c-0.2,1.7-1.2,3.3-2.7,4.3C106.5,380.3,105.2,380.7,103.9,380.7z
		 M74.7,328.7c5,6.3,8.4,11.4,10.2,15.5c1.1,2.8,1.7,5.6,1.7,8.5v9.4c0,1.6,0.7,2.9,2,3.7c5.7,3.5,11.4,6.8,15,8
		c0.9-6.3,0.1-14.3-2.5-23.8c-2.2-8.1-3.1-22.7-3.8-37.4c-0.1-0.7-0.2-1.3-0.2-2c0-0.5-0.1-1.1-0.2-1.7c-3.3-21,4-40.4,21.7-57.6
		c1.1-1.2,1.6-2.3,1.9-3.7c2.6-11.3,4-16.4,5.5-18.8l0.1-0.2c0.1-0.1,0.2-0.3,0.3-0.5c5.8-11,12.4-19.7,20.7-27.4
		c1.6-1.6,3.8-3,6.2-3.9c3.5-1.3,6.7-2.8,8.5-4c0.2-0.1,0.6-0.4,0.8-1.4l1.4-10c0.3-1.4,0.6-3.2,2.1-4.7c2.6-2.8,6.2-5.7,10.4-8.3
		c0.1-0.2,0.2-0.4,0.2-0.7s-0.1-0.6-0.2-0.8c-0.6-0.8-1.1-1.4-1.6-2c-2.2-2.8-4.7-6-6-8.5c-0.3-0.5-0.7-1.2-1.2-1.6
		c-3.7-3.7-6.6-8.7-9.4-13.9c-0.6-1-1-2-1.2-2.7l-0.1-0.3l-1.3-5.1c-2.4,0.2-5.6,0.3-7.3,0.3c-2.3,0-3.7-0.9-4.5-1.7
		c-0.5-0.5-1-0.8-1.6-0.9l-0.8-0.2h-3.6c-3.8,1.6-6.9,1.6-9.5,0.2c-0.4-0.1-0.6-0.2-0.9-0.2h-14.9c-4.7-0.3-8.5-2-11.5-5.2
		c-1.3-1.1-1.8-2.5-2-3.3l-0.2-0.8c-0.2-1.3-0.6-2.6-1.1-3.9c-0.2-0.4-0.7-1-1.3-1.7c-1.1-1.1-1.7-2.6-1.7-4.3v-7.8
		c0,0,0-0.1-0.1-0.2c-1.3-2.1-2.6-3.7-4-5L90.6,98l-5.1-0.2c-0.1,0-0.1,0-0.2,0s-0.1,0-0.2,0l-2.6,1.6h-0.4
		c-0.5,0.2-1.4,0.2-2.2,0.3c-0.8,0.1-1.7,0.1-2.6,0h-0.8v4.1c0,2.1-1.1,4-2.8,4.9l0.7,2.1v0.6c0,2.3-1.7,4.1-3.9,4.1h-5.3
		c-1.5,0-2.7-0.5-3.4-0.8c-1.5-0.8-3.1-1.7-4.3-3.1c-0.9-1-1.3-1.9-1.6-2.8l-1.1-4l-3.5-2.9c-1.6-1.6-2.4-3.3-2.4-5.2L48.7,93
		c-2-1.1-3.9-2.1-5.7-3c-3-1.5-5.1-2.7-6.7-3.7v0.8c0,2.3-0.8,4.3-2.4,5.9l-2.7,2.7c-0.1,2.1-1.1,4-2.7,5.2l-2.2,1.5
		c-1.5,1-2.9,1-3.8,0.8c-0.8-0.2-1.8-0.6-2.8-1.6l-0.6-0.3c-2.1-1.4-3.6-3.1-4.4-5.2l-0.1-0.3c0,0-0.1-0.3-0.5-0.7l-9.2-9.2
		c-0.7-0.5-1.3-0.7-1.8-0.7H1c-2,0-3.8,0.7-4.9,1.7c-0.6,0.6-1.1,1.5-1.5,2.5l0.9,0.5c1.7,1.1,2.7,2.9,2.7,4.7l-0.1,0.8
		c-0.7,2.9-2.7,3.9-3.9,4.3l-1,0.3c-1.8,0.4-3.6,0.1-5.1-0.8c-2.1,2.2-2.5,3.5-2.5,4.3l9.7,0.2l0,0c2,0,3.8,0.5,5.2,1.6l1.9,1.3
		c1.9,1.4,3.1,3,3.5,4.7l0.2,0.8c0.8,3.4-0.5,6.7-3.5,8.4c-2.3,1.5-3.7,3.3-4,5.3c-0.5,3.3,1.8,7.9,6.5,13.3l0.2,0.2
		c1.2,1.6,1.8,3.4,1.8,5.3v2.7c0,0.2,0,0.6,0,0.8c1.5,2.3,1.8,5.1,0.7,8.3l-0.1,0.2v0.5c19.1,5.6,21.1,9.8,21.9,11.4
		c0.5,1,0.6,1.8,0.6,2.6v1.8c0,0.2,0,0.4,0.1,0.5l1.1,1.4c0.9,1,1.8,2.7,1.8,4.3v0.5c0.3,2.8-0.9,5.3-3.4,6.9
		c-1.5,1-3.3,2.6-3.3,4.2c0,0.9,0.7,3.4,7,7.6c0.7,0.4,1.4,0.7,1.9,0.8c3.3,0.7,6.1,2.7,8.1,6.2c0.4,0.9,1.2,1.5,2,2.2
		c7.5,5,11.2,10.9,11.2,17.4c0,0.6,0.3,1.2,0.8,1.9c3.3,3.6,5.8,7.4,7.2,11.3c1,2.4,0.4,5.4-1.5,7.3L62,247c-1,1-1.4,2.3-1.5,3.2
		l-0.2,2c0,0.2,0.1,0.4,0.2,0.4l0.3,0.1c1.6,0.5,3.1,0.7,4.7,0.5c1.9-0.3,4.1-0.2,5.8,0.4c1.3,0.4,3,0.9,4.4,2
		c1.9,1.1,2.5,3.5,1.4,5.6l-0.1,0.2l-2.3,3.9c-0.8,1.2-1.1,2-1.5,3.2l-0.7,2.1c-0.8,2.6-1.9,4.8-3.5,6.9c-1.4,1.6-2.8,3.1-4.4,4.7
		l-0.2,0.2c-0.5,0.4-0.8,1.3-0.8,2.2l0.5,9.7c0,2.1-0.3,4-0.8,5.9L62,304c-0.5,1.7-0.3,3.5,0.5,5C65.4,314.8,70.8,323,74.7,328.7z"
		/>
</g>
</svg>
