<?xml version="1.0" encoding="utf-8"?>
<!-- Generator: Adobe Illustrator 19.0.0, SVG Export Plug-In . SVG Version: 6.00 Build 0)  -->
<svg version="1.1" id="Layer_1" xmlns="http://www.w3.org/2000/svg" xmlns:xlink="http://www.w3.org/1999/xlink" x="0px" y="0px"
	 viewBox="0 0 560 560" style="enable-background:new 0 0 560 560;" xml:space="preserve">
<style type="text/css">
	.st0{fill:#9D9D9C;}
	.st1{fill:none;stroke:#9D9D9C;stroke-width:7;stroke-miterlimit:10;}
	.st2{fill:#EBB700;}
	.st3{fill:none;stroke:#000000;stroke-width:7;stroke-miterlimit:10;}
	.st4{enable-background:new    ;}
	.st5{fill:#447ABD;}
	.st6{fill:#FFFFFF;}
</style>
<g id="XMLID_41_">
	<g id="XMLID_60_">
		<path id="XMLID_129_" class="st0" d="M108.3,445.5c-31.6,0-62.4-7.4-92.2-22.2c-6.9-3.5-11.4-10.7-11.4-18.5V171.4H20v233.5
			c0,2.1,1.2,4,3,4.9c56.1,27.8,113.7,27.7,176.2-0.4c1.9-0.8,3.1-2.7,3.1-4.8V171.4h15.2v233.2c0,8.2-4.8,15.5-12.2,18.7
			C172.3,438.1,139.9,445.5,108.3,445.5z"/>
	</g>
	<g id="XMLID_59_">
		<path id="XMLID_126_" class="st0" d="M111.1,212.6c-51.5,0-106.3-15.4-106.3-43.8s54.8-43.8,106.3-43.8s106.3,15.4,106.3,43.8
			S162.6,212.6,111.1,212.6z M111.1,140.1c-55.6,0-91.1,17-91.1,28.6c0,11.7,35.5,28.6,91.1,28.6s91.1-17,91.1-28.6
			C202.2,157.1,166.7,140.1,111.1,140.1z"/>
	</g>
	<g id="XMLID_58_">
		<path id="XMLID_125_" class="st0" d="M330.1,444c-31.6,0-62.4-7.4-92.2-22.2c-6.9-3.5-11.4-10.7-11.4-18.5V56.6h15.2v346.7
			c0,2.1,1.2,4,3,4.9c56.1,27.8,113.7,27.7,176.2-0.3c1.9-0.8,3.1-2.7,3.1-4.8V56.8h15.2v346.3c0,8.2-4.8,15.5-12.2,18.7
			C394.1,436.6,361.7,444,330.1,444z"/>
	</g>
	<g id="XMLID_57_">
		<path id="XMLID_124_" class="st0" d="M332.8,328.3c-34.3,0-68.6-10.2-102.6-30.7l7.8-13c62.9,37.8,126.7,37.8,189.6,0l7.8,13
			C401.4,318.1,367.1,328.3,332.8,328.3z"/>
	</g>
	<g id="XMLID_56_">
		<path id="XMLID_123_" class="st0" d="M332.8,387.6c-34.3,0-68.6-10.2-102.6-30.7l7.8-13c62.9,37.8,126.7,37.8,189.6,0l7.8,13
			C401.4,377.3,367.1,387.6,332.8,387.6z"/>
	</g>
	<g id="XMLID_55_">
		<path id="XMLID_102_" class="st1" d="M234.1,169.8"/>
	</g>
	<g id="XMLID_54_">
		<path id="XMLID_119_" class="st0" d="M332.8,96.9c-51.5,0-106.3-15.4-106.3-43.8c0-28.5,54.8-43.8,106.3-43.8
			s106.3,15.4,106.3,43.8C439.2,81.6,384.4,96.9,332.8,96.9z M332.8,24.5c-55.6,0-91.1,17-91.1,28.6c0,11.7,35.5,28.6,91.1,28.6
			s91.1-17,91.1-28.6C424,41.4,388.5,24.5,332.8,24.5z"/>
	</g>
	<g id="XMLID_53_">
		<path id="XMLID_118_" class="st0" d="M332.8,165.2c-34.3,0-68.6-10.2-102.6-30.7l7.8-13c62.9,37.8,126.7,37.8,189.6,0l7.8,13
			C401.4,154.9,367.1,165.2,332.8,165.2z"/>
	</g>
	<g id="XMLID_52_">
		<path id="XMLID_115_" class="st2" d="M209.8,261.4L209.8,261.4v143.4c0,5.2-3,9.8-7.6,11.7c-62.7,28.2-123.7,29.5-182.7,0.2
			c-4.3-2.2-7.2-6.7-7.2-11.7V261.2l0,0"/>
		<path id="XMLID_116_" d="M108.3,445.7c-31.6,0-62.4-7.4-92.2-22.2C9.2,420.1,4.8,412.8,4.8,405V261.2H20V405c0,2.1,1.2,4,3,4.9
			c56.1,27.8,113.7,27.7,176.2-0.3c1.9-0.8,3.1-2.7,3.1-4.8V261.4h15.2v143.4c0,8.2-4.8,15.5-12.2,18.7
			C172.3,438.3,139.9,445.7,108.3,445.7z"/>
	</g>
	<g id="XMLID_51_">
		<path id="XMLID_113_" class="st2" d="M209.8,335.2c-65.7,39.5-131.7,39.5-197.4,0"/>
		<path id="XMLID_114_" d="M111.1,372.4c-34.3,0-68.6-10.2-102.6-30.7l7.8-13c62.9,37.8,126.7,37.8,189.6,0l7.8,13
			C179.7,362.1,145.4,372.4,111.1,372.4z"/>
	</g>
	<g id="XMLID_50_">
		<ellipse id="XMLID_109_" class="st2" cx="111.1" cy="261.4" rx="98.7" ry="36.2"/>
		<path id="XMLID_110_" d="M111.1,305.2c-51.5,0-106.3-15.4-106.3-43.8c0-28.5,54.8-43.8,106.3-43.8s106.3,15.4,106.3,43.8
			C217.4,289.9,162.6,305.2,111.1,305.2z M111.1,232.8c-55.6,0-91.1,17-91.1,28.6s35.5,28.6,91.1,28.6s91.1-17,91.1-28.6
			S166.7,232.8,111.1,232.8z"/>
	</g>
	<g id="XMLID_49_">
		<path id="XMLID_107_" class="st2" d="M431.6,231.7v14.1v157.1c0,5.2-3,9.8-7.6,11.7c-62.7,28.2-123.7,29.5-182.7,0.2
			c-4.3-2.2-7.2-6.7-7.2-11.7V244.9v-13.5"/>
		<path id="XMLID_108_" d="M330.1,443.8c-31.6,0-62.4-7.4-92.2-22.2c-6.9-3.5-11.4-10.7-11.4-18.5V231.5h15.2v171.6
			c0,2.1,1.2,4,3,4.9c56.1,27.8,113.7,27.7,176.2-0.4c1.9-0.8,3.1-2.7,3.1-4.8V231.7h15.2v171.2c0,8.2-4.8,15.5-12.2,18.7
			C394.1,436.4,361.7,443.8,330.1,443.8z"/>
	</g>
	<g id="XMLID_48_">
		<path id="XMLID_105_" class="st2" d="M431.6,290.9c-65.7,39.5-131.7,39.5-197.4,0"/>
		<path id="XMLID_106_" d="M332.8,328.1c-34.3,0-68.6-10.2-102.6-30.7l7.8-13c62.9,37.8,126.7,37.8,189.6,0l7.8,13
			C401.4,317.9,367.1,328.1,332.8,328.1z"/>
	</g>
	<g id="XMLID_47_">
		<path id="XMLID_103_" class="st2" d="M431.6,350.4c-65.7,39.5-131.7,39.5-197.4,0"/>
		<path id="XMLID_104_" d="M332.8,387.6c-34.3,0-68.6-10.2-102.6-30.7l7.8-13c62.9,37.8,126.7,37.8,189.6,0l7.8,13
			C401.4,377.3,367.1,387.6,332.8,387.6z"/>
	</g>
	<g id="XMLID_46_">
		<path id="XMLID_83_" class="st3" d="M483.2,168.3"/>
	</g>
	<g id="XMLID_45_">
		<ellipse id="XMLID_98_" class="st2" cx="332.8" cy="233.2" rx="98.7" ry="36.2"/>
		<path id="XMLID_99_" d="M332.8,277c-51.5,0-106.3-15.4-106.3-43.8c0-28.5,54.8-43.8,106.3-43.8s106.3,15.4,106.3,43.8
			C439.2,261.7,384.4,277,332.8,277z M332.8,204.6c-55.6,0-91.1,17-91.1,28.6c0,11.7,35.5,28.6,91.1,28.6s91.1-17,91.1-28.6
			C424,221.5,388.5,204.6,332.8,204.6z"/>
	</g>
	<g id="XMLID_44_" class="st4">
		<path id="XMLID_84_" d="M120.9,531.4v-62.1h8.2v54.8h30.6v7.3H120.9z"/>
		<path id="XMLID_86_" d="M165.7,508.9c0-8.3,2.3-14.5,6.9-18.5c3.9-3.3,8.6-5,14.2-5c6.2,0,11.2,2,15.2,6.1
			c3.9,4.1,5.9,9.7,5.9,16.8c0,5.8-0.9,10.3-2.6,13.7c-1.7,3.3-4.3,5.9-7.6,7.7c-3.3,1.8-6.9,2.8-10.9,2.8c-6.3,0-11.4-2-15.3-6.1
			C167.7,522.4,165.7,516.5,165.7,508.9z M173.6,508.9c0,5.8,1.3,10.1,3.8,12.9c2.5,2.9,5.7,4.3,9.5,4.3c3.8,0,6.9-1.4,9.5-4.3
			c2.5-2.9,3.8-7.3,3.8-13.2c0-5.6-1.3-9.8-3.8-12.6c-2.5-2.9-5.7-4.3-9.4-4.3c-3.8,0-7,1.4-9.5,4.3
			C174.8,498.9,173.6,503.2,173.6,508.9z"/>
		<path id="XMLID_89_" d="M216.9,531.4v-62.1h7.6v35.4l18.1-18.3h9.9l-17.2,16.7l18.9,28.3h-9.4l-14.9-23l-5.4,5.2v17.8H216.9z"/>
		<path id="XMLID_91_" d="M289.6,525.9c-2.8,2.4-5.5,4.1-8.2,5.1c-2.6,1-5.4,1.5-8.4,1.5c-4.9,0-8.7-1.2-11.4-3.6
			c-2.7-2.4-4-5.5-4-9.3c0-2.2,0.5-4.2,1.5-6c1-1.8,2.3-3.3,3.9-4.4c1.6-1.1,3.5-1.9,5.5-2.5c1.5-0.4,3.8-0.8,6.8-1.1
			c6.2-0.7,10.7-1.6,13.6-2.6c0-1,0-1.7,0-2c0-3.1-0.7-5.3-2.2-6.6c-1.9-1.7-4.8-2.6-8.7-2.6c-3.6,0-6.2,0.6-7.9,1.9
			c-1.7,1.3-3,3.5-3.8,6.7l-7.5-1c0.7-3.2,1.8-5.8,3.3-7.7c1.6-2,3.8-3.5,6.7-4.5c2.9-1.1,6.3-1.6,10.2-1.6c3.8,0,7,0.5,9.4,1.4
			c2.4,0.9,4.2,2,5.3,3.4c1.1,1.4,1.9,3.1,2.4,5.2c0.3,1.3,0.4,3.6,0.4,7v10.2c0,7.1,0.2,11.6,0.5,13.5c0.3,1.9,1,3.7,1.9,5.4h-8
			C290.3,529.9,289.8,528,289.6,525.9z M288.9,508.8c-2.8,1.1-6.9,2.1-12.5,2.9c-3.1,0.5-5.4,1-6.7,1.5c-1.3,0.6-2.3,1.4-3,2.5
			c-0.7,1.1-1.1,2.3-1.1,3.6c0,2,0.8,3.7,2.3,5.1c1.5,1.4,3.8,2,6.8,2c2.9,0,5.6-0.6,7.8-1.9c2.3-1.3,4-3,5-5.3
			c0.8-1.7,1.2-4.3,1.2-7.6V508.8z"/>
		<path id="XMLID_94_" d="M308.3,531.4v-62.1h7.6v62.1H308.3z"/>
		<path id="XMLID_96_" d="M344.4,524.6l1.1,6.7c-2.1,0.5-4.1,0.7-5.8,0.7c-2.8,0-4.9-0.4-6.4-1.3c-1.5-0.9-2.6-2-3.2-3.5
			c-0.6-1.4-0.9-4.4-0.9-9v-25.9h-5.6v-5.9h5.6v-11.1l7.6-4.6v15.7h7.7v5.9h-7.7v26.3c0,2.2,0.1,3.6,0.4,4.2
			c0.3,0.6,0.7,1.1,1.3,1.5c0.6,0.4,1.5,0.6,2.6,0.6C341.9,524.9,343,524.8,344.4,524.6z"/>
	</g>
	<g id="Ellipse_9_5_">
		<circle id="XMLID_40_" class="st5" cx="431.6" cy="322.8" r="124.8"/>
	</g>
	<g id="XMLID_43_" class="st4">
		<path id="XMLID_72_" d="M350,333.4l8.1-0.7c0.6,3.9,2,6.9,4.2,8.9c2.2,2,4.8,3,7.9,3c3.7,0,6.9-1.4,9.4-4.2
			c2.6-2.8,3.9-6.5,3.9-11.2c0-4.4-1.2-7.9-3.7-10.4c-2.5-2.5-5.7-3.8-9.7-3.8c-2.5,0-4.7,0.6-6.7,1.7c-2,1.1-3.6,2.6-4.7,4.4
			l-7.3-0.9l6.1-32.3h31.3v7.4h-25.1l-3.4,16.9c3.8-2.6,7.7-3.9,11.9-3.9c5.5,0,10.1,1.9,13.9,5.7c3.8,3.8,5.7,8.7,5.7,14.7
			c0,5.7-1.7,10.6-5,14.8c-4,5.1-9.5,7.6-16.5,7.6c-5.7,0-10.4-1.6-14-4.8C352.6,342.9,350.5,338.7,350,333.4z"/>
		<path id="XMLID_74_" d="M398.9,318.8c0-7.4,0.8-13.4,2.3-18c1.5-4.5,3.8-8,6.8-10.5c3-2.5,6.8-3.7,11.4-3.7c3.4,0,6.3,0.7,8.9,2
			c2.5,1.4,4.7,3.3,6.3,5.9c1.7,2.6,3,5.7,3.9,9.4c0.9,3.7,1.4,8.6,1.4,14.9c0,7.4-0.8,13.3-2.3,17.9c-1.5,4.5-3.8,8-6.8,10.5
			c-3,2.5-6.8,3.7-11.4,3.7c-6.1,0-10.8-2.2-14.3-6.5C400.9,339.2,398.9,330.7,398.9,318.8z M406.8,318.8c0,10.3,1.2,17.2,3.6,20.6
			c2.4,3.4,5.4,5.1,9,5.1s6.5-1.7,9-5.2c2.4-3.4,3.6-10.3,3.6-20.6c0-10.4-1.2-17.2-3.6-20.6c-2.4-3.4-5.4-5.1-9-5.1
			c-3.5,0-6.4,1.5-8.5,4.5C408.1,301.4,406.8,308.5,406.8,318.8z"/>
		<path id="XMLID_77_" d="M449.2,302.1c0-4.5,1.1-8.3,3.4-11.5c2.3-3.1,5.5-4.7,9.8-4.7c3.9,0,7.2,1.4,9.8,4.2
			c2.6,2.8,3.9,7,3.9,12.4c0,5.3-1.3,9.4-3.9,12.3c-2.6,2.9-5.8,4.3-9.7,4.3c-3.8,0-7-1.4-9.5-4.3
			C450.5,312.1,449.2,307.8,449.2,302.1z M462.6,291.2c-1.9,0-3.5,0.8-4.8,2.5c-1.3,1.7-1.9,4.7-1.9,9.1c0,4,0.6,6.9,1.9,8.5
			c1.3,1.6,2.9,2.5,4.8,2.5c1.9,0,3.6-0.8,4.8-2.5c1.3-1.7,1.9-4.7,1.9-9.1c0-4.1-0.6-6.9-1.9-8.6
			C466.2,292,464.6,291.2,462.6,291.2z M462.7,352.2l34.4-66.3h6.3l-34.3,66.3H462.7z M489.9,335.1c0-4.5,1.1-8.3,3.4-11.5
			c2.3-3.1,5.6-4.7,9.9-4.7c3.9,0,7.2,1.4,9.8,4.2c2.6,2.8,3.9,7,3.9,12.4c0,5.3-1.3,9.4-3.9,12.3c-2.6,2.9-5.9,4.3-9.7,4.3
			c-3.8,0-7-1.4-9.5-4.3C491.2,345.1,489.9,340.8,489.9,335.1z M503.4,324.3c-1.9,0-3.6,0.8-4.8,2.5c-1.3,1.7-1.9,4.7-1.9,9.1
			c0,4,0.6,6.8,1.9,8.5c1.3,1.7,2.9,2.5,4.8,2.5c2,0,3.6-0.8,4.9-2.5c1.3-1.7,1.9-4.7,1.9-9.1c0-4.1-0.6-6.9-1.9-8.6
			C506.9,325.1,505.3,324.3,503.4,324.3z"/>
	</g>
	<g id="XMLID_42_" class="st4">
		<path id="XMLID_61_" class="st6" d="M350,333.4l8.1-0.7c0.6,3.9,2,6.9,4.2,8.9c2.2,2,4.8,3,7.9,3c3.7,0,6.9-1.4,9.4-4.2
			c2.6-2.8,3.9-6.5,3.9-11.2c0-4.4-1.2-7.9-3.7-10.4c-2.5-2.5-5.7-3.8-9.7-3.8c-2.5,0-4.7,0.6-6.7,1.7c-2,1.1-3.6,2.6-4.7,4.4
			l-7.3-0.9l6.1-32.3h31.3v7.4h-25.1l-3.4,16.9c3.8-2.6,7.7-3.9,11.9-3.9c5.5,0,10.1,1.9,13.9,5.7c3.8,3.8,5.7,8.7,5.7,14.7
			c0,5.7-1.7,10.6-5,14.8c-4,5.1-9.5,7.6-16.5,7.6c-5.7,0-10.4-1.6-14-4.8C352.6,342.9,350.5,338.7,350,333.4z"/>
		<path id="XMLID_63_" class="st6" d="M398.9,318.8c0-7.4,0.8-13.4,2.3-18c1.5-4.5,3.8-8,6.8-10.5c3-2.5,6.8-3.7,11.4-3.7
			c3.4,0,6.3,0.7,8.9,2c2.5,1.4,4.7,3.3,6.3,5.9c1.7,2.6,3,5.7,3.9,9.4c0.9,3.7,1.4,8.6,1.4,14.9c0,7.4-0.8,13.3-2.3,17.9
			c-1.5,4.5-3.8,8-6.8,10.5c-3,2.5-6.8,3.7-11.4,3.7c-6.1,0-10.8-2.2-14.3-6.5C400.9,339.2,398.9,330.7,398.9,318.8z M406.8,318.8
			c0,10.3,1.2,17.2,3.6,20.6c2.4,3.4,5.4,5.1,9,5.1s6.5-1.7,9-5.2c2.4-3.4,3.6-10.3,3.6-20.6c0-10.4-1.2-17.2-3.6-20.6
			c-2.4-3.4-5.4-5.1-9-5.1c-3.5,0-6.4,1.5-8.5,4.5C408.1,301.4,406.8,308.5,406.8,318.8z"/>
		<path id="XMLID_66_" class="st6" d="M449.2,302.1c0-4.5,1.1-8.3,3.4-11.5c2.3-3.1,5.5-4.7,9.8-4.7c3.9,0,7.2,1.4,9.8,4.2
			c2.6,2.8,3.9,7,3.9,12.4c0,5.3-1.3,9.4-3.9,12.3c-2.6,2.9-5.8,4.3-9.7,4.3c-3.8,0-7-1.4-9.5-4.3
			C450.5,312.1,449.2,307.8,449.2,302.1z M462.6,291.2c-1.9,0-3.5,0.8-4.8,2.5c-1.3,1.7-1.9,4.7-1.9,9.1c0,4,0.6,6.9,1.9,8.5
			c1.3,1.6,2.9,2.5,4.8,2.5c1.9,0,3.6-0.8,4.8-2.5c1.3-1.7,1.9-4.7,1.9-9.1c0-4.1-0.6-6.9-1.9-8.6
			C466.2,292,464.6,291.2,462.6,291.2z M462.7,352.2l34.4-66.3h6.3l-34.3,66.3H462.7z M489.9,335.1c0-4.5,1.1-8.3,3.4-11.5
			c2.3-3.1,5.6-4.7,9.9-4.7c3.9,0,7.2,1.4,9.8,4.2c2.6,2.8,3.9,7,3.9,12.4c0,5.3-1.3,9.4-3.9,12.3c-2.6,2.9-5.9,4.3-9.7,4.3
			c-3.8,0-7-1.4-9.5-4.3C491.2,345.1,489.9,340.8,489.9,335.1z M503.4,324.3c-1.9,0-3.6,0.8-4.8,2.5c-1.3,1.7-1.9,4.7-1.9,9.1
			c0,4,0.6,6.8,1.9,8.5c1.3,1.7,2.9,2.5,4.8,2.5c2,0,3.6-0.8,4.9-2.5c1.3-1.7,1.9-4.7,1.9-9.1c0-4.1-0.6-6.9-1.9-8.6
			C506.9,325.1,505.3,324.3,503.4,324.3z"/>
	</g>
</g>
</svg>
