<?xml version="1.0" encoding="utf-8"?>
<!-- Generator: Adobe Illustrator 19.0.0, SVG Export Plug-In . SVG Version: 6.00 Build 0)  -->
<svg version="1.1" id="Layer_1" xmlns="http://www.w3.org/2000/svg" xmlns:xlink="http://www.w3.org/1999/xlink" x="0px" y="0px"
	 viewBox="-95.9 0 353.8 560" style="enable-background:new -95.9 0 353.8 560;" xml:space="preserve">
<style type="text/css">
	.st0{fill:#1D1D1B;}
	.st1{fill:#437ABC;}
	.st2{fill:#1D1D1B;stroke:#FFFFFF;stroke-width:3;stroke-miterlimit:10;}
	.st3{fill:#FFFFFF;}
</style>
<g id="XMLID_40_">
	<path id="XMLID_27_" class="st0" d="M-73.3,255.7l-0.5-0.7l0,0C-73.7,255.2-73.5,255.5-73.3,255.7z"/>
</g>
<g id="XMLID_56_">
	<path id="XMLID_38_" class="st1" d="M254.5,176.8c0,27.7-6.4,54-18.1,77.1l-0.2,0.2l-2.7,5.3l0,0L80.9,552.6L-73.5,255.7
		c-0.2-0.2-0.2-0.5-0.5-0.7c-11.9-23.6-18.5-50.1-18.5-78.2C-92.5,81-14.7,3.4,80.9,3.4C176.7,3.4,254.5,81,254.5,176.8z"/>
	<path id="XMLID_39_" class="st1" d="M80.9,560L-76.4,257.6c-0.1-0.1-0.2-0.3-0.3-0.4l-0.1-0.1l-0.2-0.5
		c-12.5-24.8-18.9-51.7-18.9-79.8C-95.9,79.3-16.6,0,80.9,0c97.6,0,177,79.3,177,176.8c0,27.5-6.4,54.7-18.4,78.6l-3,5.5L80.9,560z
		 M-70.8,253.5l0.1,0.1L80.9,545.1L233.4,252l0.2-0.2c11.4-22.8,17.5-48.7,17.5-75C251,83.1,174.7,6.9,80.9,6.9
		C-12.8,6.9-89,83.1-89,176.8c0,26.9,6.1,52.6,18,76.4C-70.9,253.3-70.9,253.4-70.8,253.5z"/>
</g>
<g id="XMLID_54_">
	<path id="XMLID_30_" class="st2" d="M81.8,233.1"/>
</g>
<g id="XMLID_52_">
	<path id="XMLID_29_" class="st2" d="M81.8,233.1"/>
</g>
<g id="XMLID_43_">
	<g id="XMLID_48_">
		<path id="XMLID_33_" class="st3" d="M135.2,261.9c-14.4,0-29-2.3-44.1-6.8c-2.4-0.7-4.9-1.6-7.3-2.5c-0.9-0.3-1.8-0.7-2.7-1
			c-28.8-12.1-65.4-6.1-97.3,1.5l-4.2,1V113.9l2.4-0.8c39.4-12.9,70.1-13.6,96.6-2.4c5.2,2.2,10.7,3.9,16.4,5.3
			c33.8,7.9,62,6.9,86.2-2.8l4.7-1.9v140.8l-2.2,0.8C167.7,258.9,151.6,261.9,135.2,261.9z M42.6,237.8c14.4,0,28.3,2,41,7.4
			c0.7,0.3,1.7,0.6,2.6,0.9c2.3,0.8,4.7,1.7,6.9,2.4c30.1,9.1,58.3,8.7,86-1.2v-126c-24.4,8.6-52.5,9-85.6,1.4
			c-6.1-1.5-11.9-3.4-17.5-5.7c-24.4-10.3-52.9-9.8-89.5,1.8v126.5C4.5,241.3,23.9,237.8,42.6,237.8z"/>
	</g>
	<g id="XMLID_46_">
		<path id="XMLID_32_" class="st3" d="M66.8,243.9l-6.6-2c7.2-23.7,7.2-45.3,0-66.1c-6.1-20.4-6.1-42.9-0.1-66.9l6.7,1.7
			c-5.8,22.8-5.8,44,0,63.1C74.4,195.8,74.4,218.8,66.8,243.9z"/>
	</g>
	<g id="XMLID_44_">
		<path id="XMLID_31_" class="st3" d="M125.4,190.8c-18.6,0-36.9-1.7-54.5-5.1c-30.5-7.7-60-7.8-87.6-0.1l-1.8-6.6
			c28.8-8,59.4-8,91,0c34.3,6.6,71,6.6,108.8-0.1l1.2,6.8C163,189.1,144,190.8,125.4,190.8z"/>
	</g>
</g>
</svg>
