<?xml version="1.0" encoding="utf-8"?>
<!-- Generator: Adobe Illustrator 19.0.0, SVG Export Plug-In . SVG Version: 6.00 Build 0)  -->
<svg version="1.1" id="Layer_1" xmlns="http://www.w3.org/2000/svg" xmlns:xlink="http://www.w3.org/1999/xlink" x="0px" y="0px"
	 viewBox="0 0 560 560" style="enable-background:new 0 0 560 560;" xml:space="preserve">
<style type="text/css">
	.st0{fill:none;stroke:#000000;stroke-width:7;stroke-miterlimit:10;}
	.st1{fill:#9D9D9C;}
	.st2{fill:none;stroke:#9D9D9C;stroke-width:7;stroke-miterlimit:10;}
	.st3{fill:#EBB700;}
	.st4{fill:#FFED00;stroke:#000000;stroke-width:7;stroke-miterlimit:10;}
	.st5{enable-background:new    ;}
	.st6{fill:#447ABD;}
	.st7{fill:#FFFFFF;}
</style>
<g id="XMLID_112_">
	<g id="XMLID_207_">
		<path id="XMLID_98_" class="st0" d="M74.4,225.4"/>
	</g>
	<g id="XMLID_205_">
		<path id="XMLID_111_" class="st1" d="M109,444.1c-31.5,0-62.2-7.4-91.9-22.1c-6.9-3.5-11.3-10.7-11.3-18.5V170.2h15.1v233.3
			c0,2.1,1.2,4,3,4.9c55.9,27.8,113.4,27.7,175.7-0.4c1.9-0.8,3.1-2.7,3.1-4.8V170.4h15.1v232.9c0,8.2-4.8,15.5-12.2,18.7
			C172.8,436.7,140.6,444.1,109,444.1z"/>
	</g>
	<g id="XMLID_203_">
		<path id="XMLID_110_" class="st1" d="M111.8,269.3c-34.2,0-68.4-10.2-102.3-30.6l7.8-13c62.7,37.7,126.4,37.7,189.1,0l7.8,13
			C180.2,259.1,146,269.3,111.8,269.3z"/>
	</g>
	<g id="XMLID_199_">
		<path id="XMLID_107_" class="st1" d="M111.8,211.6c-51.4,0-106-15.3-106-43.8c0-28.4,54.6-43.8,106-43.8s106,15.3,106,43.8
			C217.8,196.2,163.2,211.6,111.8,211.6z M111.8,139.2c-55.5,0-90.9,16.9-90.9,28.6c0,11.7,35.4,28.6,90.9,28.6s90.9-16.9,90.9-28.6
			C202.7,156.1,167.3,139.2,111.8,139.2z"/>
	</g>
	<g id="XMLID_197_">
		<path id="XMLID_106_" class="st1" d="M330.4,442.6c-31.5,0-62.2-7.4-91.9-22.1c-6.9-3.5-11.3-10.7-11.3-18.5V55.8h15.1V402
			c0,2.1,1.2,4,3,4.9c56,27.8,113.4,27.7,175.7-0.4c1.9-0.8,3.1-2.7,3.1-4.8V56h15.1v345.7c0,8.2-4.8,15.5-12.2,18.7
			C394.2,435.2,361.9,442.6,330.4,442.6z"/>
	</g>
	<g id="XMLID_195_">
		<path id="XMLID_105_" class="st1" d="M333.2,386.2c-34.2,0-68.4-10.2-102.3-30.6l7.8-13c62.7,37.7,126.4,37.7,189.1,0l7.8,13
			C401.5,376,367.3,386.2,333.2,386.2z"/>
	</g>
	<g id="XMLID_193_">
		<path id="XMLID_97_" class="st2" d="M234.5,168.9"/>
	</g>
	<g id="XMLID_189_">
		<path id="XMLID_101_" class="st1" d="M332.9,96.1c-51.4,0-106-15.3-106-43.8c0-28.4,54.6-43.8,106-43.8s106,15.3,106,43.8
			C438.9,80.8,384.3,96.1,332.9,96.1z M332.9,23.8c-55.5,0-90.9,16.9-90.9,28.6c0,11.7,35.4,28.6,90.9,28.6s90.9-16.9,90.9-28.6
			C423.8,40.7,388.4,23.8,332.9,23.8z"/>
	</g>
	<g id="XMLID_187_">
		<path id="XMLID_100_" class="st1" d="M333.2,217.9c-34.2,0-68.4-10.2-102.3-30.6l7.8-13c62.7,37.7,126.4,37.7,189.1,0l7.8,13
			C401.5,207.7,367.3,217.9,333.2,217.9z"/>
	</g>
	<g id="XMLID_185_">
		<path id="XMLID_99_" class="st1" d="M333.2,157.1c-34.2,0-68.4-10.2-102.3-30.6l7.8-13c62.7,37.7,126.4,37.7,189.1,0l7.8,13
			C401.5,146.9,367.3,157.1,333.2,157.1z"/>
	</g>
	<g id="XMLID_183_">
		<path id="XMLID_94_" class="st0" d="M210.3,348.9"/>
	</g>
	<g id="XMLID_172_">
		<g id="XMLID_180_">
			<path id="XMLID_95_" class="st3" d="M210.3,332.9v69.3c0,5.2-3,9.7-7.6,11.7c-62.5,28.2-123.3,29.5-182.2,0.2
				c-4.3-2.2-7.1-6.7-7.1-11.7v-71.3"/>
			<path id="XMLID_96_" d="M109,443c-31.5,0-62.2-7.4-91.9-22.1c-6.9-3.5-11.3-10.7-11.3-18.5v-71.3h15.1v71.3c0,2.1,1.2,4,3,4.9
				c55.9,27.8,113.4,27.7,175.7-0.4c1.9-0.8,3.1-2.7,3.1-4.8v-69.3h15.1v69.3c0,8.2-4.8,15.5-12.2,18.7
				C172.8,435.6,140.6,443,109,443z"/>
		</g>
		<g id="XMLID_178_">
			<path id="XMLID_61_" class="st4" d="M13.4,349.8"/>
		</g>
		<g id="XMLID_173_">
			<ellipse id="XMLID_90_" class="st3" cx="111.8" cy="331.3" rx="98.4" ry="36.2"/>
			<path id="XMLID_91_" d="M111.8,375.1c-51.4,0-106-15.3-106-43.8c0-28.4,54.6-43.8,106-43.8s106,15.3,106,43.8
				C217.8,359.8,163.2,375.1,111.8,375.1z M111.8,302.8c-55.5,0-90.9,16.9-90.9,28.6c0,11.7,35.4,28.6,90.9,28.6
				s90.9-16.9,90.9-28.6C202.7,319.7,167.3,302.8,111.8,302.8z"/>
		</g>
	</g>
	<g id="XMLID_169_">
		<path id="XMLID_88_" class="st3" d="M431.6,282.4V400c0,5.2-3,9.7-7.6,11.7c-62.5,28.2-123.3,29.5-182.2,0.2
			c-4.3-2.2-7.1-6.7-7.1-11.7V285.6"/>
		<path id="XMLID_89_" d="M330.4,440.9c-31.5,0-62.2-7.4-91.9-22.1c-6.9-3.5-11.3-10.7-11.3-18.5V285.6h15.1v114.6
			c0,2.1,1.2,4,3,4.9c56,27.8,113.4,27.7,175.7-0.4c1.9-0.8,3.1-2.7,3.1-4.8V282.4h15.1V400c0,8.2-4.8,15.5-12.2,18.7
			C394.2,433.5,361.9,440.9,330.4,440.9z"/>
	</g>
	<g id="XMLID_166_">
		<path id="XMLID_86_" class="st3" d="M431.6,347.6c-65.6,39.4-131.3,39.4-196.9,0"/>
		<path id="XMLID_87_" d="M333.2,384.7c-34.2,0-68.4-10.2-102.3-30.6l7.8-13c62.7,37.7,126.4,37.7,189.1,0l7.8,13
			C401.5,374.5,367.3,384.7,333.2,384.7z"/>
	</g>
	<g id="XMLID_161_">
		<ellipse id="XMLID_82_" class="st3" cx="332.9" cy="285.4" rx="98.4" ry="36.2"/>
		<path id="XMLID_83_" d="M332.9,329.2c-51.4,0-106-15.3-106-43.8s54.6-43.8,106-43.8s106,15.3,106,43.8S384.3,329.2,332.9,329.2z
			 M332.9,256.8c-55.5,0-90.9,16.9-90.9,28.6s35.4,28.6,90.9,28.6s90.9-16.9,90.9-28.6S388.4,256.8,332.9,256.8z"/>
	</g>
	<g id="XMLID_136_" class="st5">
		<path id="XMLID_62_" d="M109.9,531.6v-62h8.4l32.5,48.7v-48.7h7.9v62h-8.4l-32.5-48.7v48.7H109.9z"/>
		<path id="XMLID_64_" d="M200.8,526c-2.8,2.4-5.5,4.1-8.1,5.1c-2.6,1-5.4,1.5-8.4,1.5c-4.9,0-8.7-1.2-11.4-3.6
			c-2.6-2.4-4-5.5-4-9.2c0-2.2,0.5-4.2,1.5-6c1-1.8,2.3-3.3,3.9-4.4c1.6-1.1,3.4-1.9,5.5-2.5c1.5-0.4,3.7-0.8,6.8-1.1
			c6.1-0.7,10.7-1.6,13.6-2.6c0-1,0-1.7,0-2c0-3.1-0.7-5.3-2.2-6.6c-1.9-1.7-4.8-2.6-8.7-2.6c-3.6,0-6.2,0.6-7.9,1.9
			c-1.7,1.3-3,3.5-3.8,6.7l-7.4-1c0.7-3.2,1.8-5.8,3.3-7.7c1.5-2,3.8-3.5,6.7-4.5c2.9-1.1,6.3-1.6,10.2-1.6c3.8,0,6.9,0.5,9.3,1.4
			c2.4,0.9,4.2,2,5.3,3.4c1.1,1.4,1.9,3.1,2.4,5.2c0.3,1.3,0.4,3.6,0.4,7v10.2c0,7.1,0.2,11.6,0.5,13.4c0.3,1.9,1,3.7,1.9,5.4h-7.9
			C201.5,530,201,528.2,200.8,526z M200.1,509c-2.8,1.1-6.9,2.1-12.4,2.9c-3.1,0.5-5.3,1-6.6,1.5c-1.3,0.6-2.3,1.4-3,2.5
			c-0.7,1.1-1.1,2.3-1.1,3.6c0,2,0.8,3.7,2.3,5.1c1.5,1.4,3.8,2,6.7,2c2.9,0,5.5-0.6,7.8-1.9c2.3-1.3,4-3,5-5.3
			c0.8-1.7,1.2-4.3,1.2-7.6V509z"/>
		<path id="XMLID_67_" d="M236.2,524.8l1.1,6.7c-2.1,0.5-4.1,0.7-5.7,0.7c-2.8,0-4.9-0.4-6.4-1.3c-1.5-0.9-2.6-2-3.2-3.4
			c-0.6-1.4-0.9-4.4-0.9-9v-25.8h-5.6v-5.9h5.6v-11.1l7.6-4.6v15.7h7.6v5.9h-7.6v26.3c0,2.2,0.1,3.6,0.4,4.2
			c0.3,0.6,0.7,1.1,1.3,1.5c0.6,0.4,1.5,0.5,2.6,0.5C233.7,525.1,234.8,525,236.2,524.8z"/>
		<path id="XMLID_69_" d="M243.7,478.3v-8.8h7.6v8.8H243.7z M243.7,531.6v-44.9h7.6v44.9H243.7z"/>
		<path id="XMLID_72_" d="M260,509.1c0-8.3,2.3-14.5,6.9-18.5c3.9-3.3,8.6-5,14.1-5c6.2,0,11.2,2,15.1,6.1c3.9,4,5.9,9.6,5.9,16.8
			c0,5.8-0.9,10.3-2.6,13.6c-1.7,3.3-4.3,5.9-7.6,7.7c-3.3,1.8-6.9,2.8-10.8,2.8c-6.3,0-11.4-2-15.2-6
			C262,522.5,260,516.7,260,509.1z M267.9,509.1c0,5.8,1.3,10.1,3.8,12.9c2.5,2.9,5.7,4.3,9.5,4.3c3.8,0,6.9-1.4,9.4-4.3
			c2.5-2.9,3.8-7.3,3.8-13.2c0-5.6-1.3-9.8-3.8-12.6c-2.5-2.9-5.7-4.3-9.4-4.3c-3.8,0-7,1.4-9.5,4.3
			C269.1,499.1,267.9,503.4,267.9,509.1z"/>
		<path id="XMLID_75_" d="M311,531.6v-44.9h6.8v6.4c3.3-4.9,8.1-7.4,14.3-7.4c2.7,0,5.2,0.5,7.5,1.5c2.3,1,4,2.2,5.1,3.8
			c1.1,1.6,1.9,3.5,2.4,5.6c0.3,1.4,0.4,3.9,0.4,7.4v27.6h-7.6v-27.3c0-3.1-0.3-5.4-0.9-7s-1.6-2.8-3.1-3.7
			c-1.5-0.9-3.3-1.4-5.3-1.4c-3.2,0-6,1-8.4,3.1c-2.4,2.1-3.5,6-3.5,11.7v24.5H311z"/>
		<path id="XMLID_77_" d="M388.4,526c-2.8,2.4-5.5,4.1-8.1,5.1c-2.6,1-5.4,1.5-8.4,1.5c-4.9,0-8.7-1.2-11.4-3.6
			c-2.6-2.4-4-5.5-4-9.2c0-2.2,0.5-4.2,1.5-6c1-1.8,2.3-3.3,3.9-4.4c1.6-1.1,3.4-1.9,5.5-2.5c1.5-0.4,3.7-0.8,6.8-1.1
			c6.1-0.7,10.7-1.6,13.6-2.6c0-1,0-1.7,0-2c0-3.1-0.7-5.3-2.2-6.6c-1.9-1.7-4.8-2.6-8.7-2.6c-3.6,0-6.2,0.6-7.9,1.9
			c-1.7,1.3-3,3.5-3.8,6.7l-7.4-1c0.7-3.2,1.8-5.8,3.3-7.7c1.5-2,3.8-3.5,6.7-4.5c2.9-1.1,6.3-1.6,10.2-1.6c3.8,0,6.9,0.5,9.3,1.4
			c2.4,0.9,4.2,2,5.3,3.4c1.1,1.4,1.9,3.1,2.4,5.2c0.3,1.3,0.4,3.6,0.4,7v10.2c0,7.1,0.2,11.6,0.5,13.4c0.3,1.9,1,3.7,1.9,5.4h-7.9
			C389.2,530,388.7,528.2,388.4,526z M387.8,509c-2.8,1.1-6.9,2.1-12.4,2.9c-3.1,0.5-5.3,1-6.6,1.5c-1.3,0.6-2.3,1.4-3,2.5
			c-0.7,1.1-1.1,2.3-1.1,3.6c0,2,0.8,3.7,2.3,5.1c1.5,1.4,3.8,2,6.7,2c2.9,0,5.5-0.6,7.8-1.9c2.3-1.3,4-3,5-5.3
			c0.8-1.7,1.2-4.3,1.2-7.6V509z"/>
		<path id="XMLID_80_" d="M407.1,531.6v-62h7.6v62H407.1z"/>
	</g>
	<g id="Ellipse_9_4_">
		<ellipse id="XMLID_40_" class="st6" cx="431.6" cy="325.5" rx="124.4" ry="124.6"/>
	</g>
	<g id="XMLID_124_" class="st5">
		<path id="XMLID_51_" d="M393.5,346.7v7.4H352c-0.1-1.9,0.2-3.6,0.9-5.4c1.1-2.8,2.7-5.6,5.1-8.4c2.3-2.7,5.7-5.9,10.1-9.5
			c6.8-5.6,11.4-10,13.8-13.3c2.4-3.3,3.6-6.4,3.6-9.3c0-3.1-1.1-5.6-3.3-7.7c-2.2-2.1-5-3.1-8.5-3.1c-3.7,0-6.7,1.1-8.9,3.3
			c-2.2,2.2-3.4,5.3-3.4,9.3l-7.9-0.8c0.5-5.9,2.6-10.4,6.1-13.5c3.5-3.1,8.3-4.6,14.3-4.6c6,0,10.8,1.7,14.3,5
			c3.5,3.3,5.3,7.5,5.3,12.4c0,2.5-0.5,5-1.5,7.4c-1,2.4-2.7,5-5.1,7.7c-2.4,2.7-6.3,6.4-11.9,11.1c-4.6,3.9-7.6,6.5-8.9,7.9
			s-2.4,2.8-3.3,4.2H393.5z"/>
		<path id="XMLID_53_" d="M401.7,337.7l8.1-0.7c0.6,3.9,2,6.9,4.2,8.9c2.2,2,4.8,3,7.9,3c3.7,0,6.8-1.4,9.4-4.2
			c2.6-2.8,3.9-6.5,3.9-11.1c0-4.4-1.2-7.9-3.7-10.4c-2.5-2.5-5.7-3.8-9.7-3.8c-2.5,0-4.7,0.6-6.7,1.7c-2,1.1-3.6,2.6-4.7,4.4
			l-7.2-0.9l6.1-32.3h31.2v7.4h-25l-3.4,16.9c3.8-2.6,7.7-3.9,11.9-3.9c5.5,0,10.1,1.9,13.9,5.7c3.8,3.8,5.6,8.7,5.6,14.7
			c0,5.7-1.7,10.6-5,14.7c-4,5.1-9.5,7.6-16.5,7.6c-5.7,0-10.4-1.6-14-4.8S402.3,343,401.7,337.7z"/>
		<path id="XMLID_55_" d="M451.9,306.4c0-4.5,1.1-8.3,3.4-11.4c2.3-3.1,5.5-4.7,9.8-4.7c3.9,0,7.2,1.4,9.8,4.2
			c2.6,2.8,3.9,6.9,3.9,12.4c0,5.3-1.3,9.4-3.9,12.3c-2.6,2.9-5.8,4.3-9.6,4.3c-3.8,0-7-1.4-9.5-4.2
			C453.2,316.4,451.9,312.1,451.9,306.4z M465.3,295.6c-1.9,0-3.5,0.8-4.8,2.5c-1.3,1.7-1.9,4.7-1.9,9.1c0,4,0.6,6.9,1.9,8.5
			c1.3,1.6,2.9,2.5,4.7,2.5c1.9,0,3.5-0.8,4.8-2.5c1.3-1.7,1.9-4.7,1.9-9.1c0-4.1-0.6-6.9-1.9-8.5
			C468.8,296.4,467.3,295.6,465.3,295.6z M465.4,356.4l34.3-66.2h6.2l-34.2,66.2H465.4z M492.5,339.4c0-4.5,1.1-8.3,3.4-11.5
			c2.3-3.1,5.5-4.7,9.8-4.7c3.9,0,7.2,1.4,9.8,4.2c2.6,2.8,3.9,6.9,3.9,12.4c0,5.3-1.3,9.4-3.9,12.3s-5.8,4.3-9.7,4.3
			c-3.8,0-7-1.4-9.5-4.3C493.8,349.3,492.5,345.1,492.5,339.4z M506,328.6c-1.9,0-3.5,0.8-4.8,2.5c-1.3,1.7-1.9,4.7-1.9,9.1
			c0,4,0.6,6.8,1.9,8.5c1.3,1.7,2.9,2.5,4.8,2.5c2,0,3.6-0.8,4.9-2.5c1.3-1.7,1.9-4.7,1.9-9.1c0-4.1-0.6-6.9-1.9-8.5
			C509.5,329.4,507.9,328.6,506,328.6z"/>
	</g>
	<g id="XMLID_113_" class="st5">
		<path id="XMLID_41_" class="st7" d="M393.5,346.7v7.4H352c-0.1-1.9,0.2-3.6,0.9-5.4c1.1-2.8,2.7-5.6,5.1-8.4
			c2.3-2.7,5.7-5.9,10.1-9.5c6.8-5.6,11.4-10,13.8-13.3c2.4-3.3,3.6-6.4,3.6-9.3c0-3.1-1.1-5.6-3.3-7.7c-2.2-2.1-5-3.1-8.5-3.1
			c-3.7,0-6.7,1.1-8.9,3.3c-2.2,2.2-3.4,5.3-3.4,9.3l-7.9-0.8c0.5-5.9,2.6-10.4,6.1-13.5c3.5-3.1,8.3-4.6,14.3-4.6
			c6,0,10.8,1.7,14.3,5c3.5,3.3,5.3,7.5,5.3,12.4c0,2.5-0.5,5-1.5,7.4c-1,2.4-2.7,5-5.1,7.7c-2.4,2.7-6.3,6.4-11.9,11.1
			c-4.6,3.9-7.6,6.5-8.9,7.9s-2.4,2.8-3.3,4.2H393.5z"/>
		<path id="XMLID_43_" class="st7" d="M401.7,337.7l8.1-0.7c0.6,3.9,2,6.9,4.2,8.9c2.2,2,4.8,3,7.9,3c3.7,0,6.8-1.4,9.4-4.2
			c2.6-2.8,3.9-6.5,3.9-11.1c0-4.4-1.2-7.9-3.7-10.4c-2.5-2.5-5.7-3.8-9.7-3.8c-2.5,0-4.7,0.6-6.7,1.7c-2,1.1-3.6,2.6-4.7,4.4
			l-7.2-0.9l6.1-32.3h31.2v7.4h-25l-3.4,16.9c3.8-2.6,7.7-3.9,11.9-3.9c5.5,0,10.1,1.9,13.9,5.7c3.8,3.8,5.6,8.7,5.6,14.7
			c0,5.7-1.7,10.6-5,14.7c-4,5.1-9.5,7.6-16.5,7.6c-5.7,0-10.4-1.6-14-4.8S402.3,343,401.7,337.7z"/>
		<path id="XMLID_45_" class="st7" d="M451.9,306.4c0-4.5,1.1-8.3,3.4-11.4c2.3-3.1,5.5-4.7,9.8-4.7c3.9,0,7.2,1.4,9.8,4.2
			c2.6,2.8,3.9,6.9,3.9,12.4c0,5.3-1.3,9.4-3.9,12.3c-2.6,2.9-5.8,4.3-9.6,4.3c-3.8,0-7-1.4-9.5-4.2
			C453.2,316.4,451.9,312.1,451.9,306.4z M465.3,295.6c-1.9,0-3.5,0.8-4.8,2.5c-1.3,1.7-1.9,4.7-1.9,9.1c0,4,0.6,6.9,1.9,8.5
			c1.3,1.6,2.9,2.5,4.7,2.5c1.9,0,3.5-0.8,4.8-2.5c1.3-1.7,1.9-4.7,1.9-9.1c0-4.1-0.6-6.9-1.9-8.5
			C468.8,296.4,467.3,295.6,465.3,295.6z M465.4,356.4l34.3-66.2h6.2l-34.2,66.2H465.4z M492.5,339.4c0-4.5,1.1-8.3,3.4-11.5
			c2.3-3.1,5.5-4.7,9.8-4.7c3.9,0,7.2,1.4,9.8,4.2c2.6,2.8,3.9,6.9,3.9,12.4c0,5.3-1.3,9.4-3.9,12.3s-5.8,4.3-9.7,4.3
			c-3.8,0-7-1.4-9.5-4.3C493.8,349.3,492.5,345.1,492.5,339.4z M506,328.6c-1.9,0-3.5,0.8-4.8,2.5c-1.3,1.7-1.9,4.7-1.9,9.1
			c0,4,0.6,6.8,1.9,8.5c1.3,1.7,2.9,2.5,4.8,2.5c2,0,3.6-0.8,4.9-2.5c1.3-1.7,1.9-4.7,1.9-9.1c0-4.1-0.6-6.9-1.9-8.5
			C509.5,329.4,507.9,328.6,506,328.6z"/>
	</g>
</g>
</svg>
